<?xml version="1.0" encoding="UTF-8" standalone="no"?>
<!-- Created with Inkscape (http://www.inkscape.org/) -->

<svg
   xmlns:dc="http://purl.org/dc/elements/1.1/"
   xmlns:cc="http://creativecommons.org/ns#"
   xmlns:rdf="http://www.w3.org/1999/02/22-rdf-syntax-ns#"
   xmlns:svg="http://www.w3.org/2000/svg"
   xmlns="http://www.w3.org/2000/svg"
   xmlns:sodipodi="http://sodipodi.sourceforge.net/DTD/sodipodi-0.dtd"
   xmlns:inkscape="http://www.inkscape.org/namespaces/inkscape"
   inkscape:version="0.91 r13725"
   version="1.1"
   id="svg2"
   viewBox="0 0 744.09448819 1052.3622047"
   height="297mm"
   width="210mm"
   sodipodi:docname="gears.svg">
  <sodipodi:namedview
     inkscape:window-maximized="1"
     inkscape:window-y="53"
     inkscape:window-x="-8"
     inkscape:window-height="684"
     inkscape:window-width="1366"
     showgrid="false"
     inkscape:current-layer="layer1"
     inkscape:document-units="px"
     inkscape:cy="487.72298"
     inkscape:cx="259.66193"
     inkscape:zoom="0.35"
     inkscape:pageshadow="2"
     inkscape:pageopacity="0.0"
     borderopacity="1.0"
     bordercolor="#666666"
     pagecolor="#ffffff"
     id="base"
     inkscape:snap-center="true" />
  <defs
     id="defs4" />
  <metadata
     id="metadata7">
    <rdf:RDF>
      <cc:Work
         rdf:about="">
        <dc:format>image/svg+xml</dc:format>
        <dc:type
           rdf:resource="http://purl.org/dc/dcmitype/StillImage" />
        <dc:title />
      </cc:Work>
    </rdf:RDF>
  </metadata>
  <g
     id="layer1"
     inkscape:groupmode="layer"
     inkscape:label="レイヤー 1">
    <g
       id="g4275"
       transform="matrix(0.92387953,-0.38268343,0.38268343,0.92387953,490.03133,174.46775)">
      <path
         transform="translate(-240,-75.714286)"
         d="m -58.695312,334.74219 -12.087891,0.2832 -12.087891,0.2832 c -9.467731,0.22232 -18.480496,6.72116 -21.679686,15.63477 a 13.003766,13.003766 0 0 0 0,0.002 l -5.89258,16.42969 -0.008,0.0195 a 13.003766,13.003766 0 0 0 -0.002,0.004 l -2.51954,7.02539 c -9.41163,2.86895 -18.50661,6.65789 -27.16796,11.32617 -3.59075,-1.7652 -7.53053,-3.59181 -12.64063,-5.95508 a 13.003766,13.003766 0 0 0 -0.002,-0.002 l -0.006,-0.002 -10.4043,-4.81055 a 13.003766,13.003766 0 0 0 -0.004,0 c -8.73522,-4.03587 -19.89592,-2.02557 -26.67382,4.80469 a 13.003766,13.003766 0 0 0 -0.002,0 l -8.45703,8.52343 -8.45703,8.52344 0.002,0 c -6.75857,6.81045 -8.69712,17.94146 -4.63672,26.63477 a 13.003766,13.003766 0 0 0 0.002,0.002 l 7.3164,15.6582 a 13.003766,13.003766 0 0 0 0.002,0.002 13.003766,13.003766 0 0 0 0.008,0.0156 l 3.44141,7.36328 c -4.56776,8.61663 -8.27515,17.64899 -11.07032,26.99024 -2.68345,0.88288 -5.25017,1.68936 -8.18164,2.75 l -15.73632,5.69336 a 13.003766,13.003766 0 0 0 -0.002,0 c -9.23047,3.34152 -15.80246,12.94768 -15.57422,22.76171 l 0.28321,12.14063 0.2832,12.14063 a 13.003766,13.003766 0 0 0 0,0.002 c 0.22141,9.46221 6.71129,18.46952 15.61719,21.67383 a 13.003766,13.003766 0 0 0 0.002,0 l 16.35352,5.88281 a 13.003766,13.003766 0 0 0 0,0.002 l 7.20898,2.5918 c 2.81637,9.21198 6.51613,18.11966 11.05859,26.61523 l -3.49804,7.33789 a 13.003766,13.003766 0 0 0 -0.002,0.002 l -7.69922,16.15429 a 13.003766,13.003766 0 0 0 0,0.002 c -4.16489,8.74327 -2.22488,20.01319 4.62305,26.86133 l 8.44336,8.44335 8.44336,8.44532 c 6.81499,6.81549 18.01045,8.77678 26.73633,4.68359 a 13.003766,13.003766 0 0 0 0.004,-0.002 l 16.11133,-7.5625 a 13.003766,13.003766 0 0 0 0.004,-0.002 l 7.58398,-3.5625 c 8.49133,4.52528 17.39315,8.21113 26.59766,11.01368 l 1.58203,4.46679 c 2.72524,7.69129 5.08428,14.33513 6.25586,17.34375 a 13.003766,13.003766 0 0 0 0.002,0.002 l 1.08204,2.77734 c 3.42699,8.79892 12.564972,15.04716 22.007808,15.04883 a 13.003766,13.003766 0 0 0 0.002,0 l 12.019531,0 12.021484,0 a 13.003766,13.003766 0 0 0 0.002,0 c 9.633294,-0.001 18.930817,-6.52562 22.208985,-15.58399 l 5.68164,-15.70507 c 1.067333,-2.94998 1.879359,-5.53534 2.765625,-8.23243 9.290949,-2.79613 18.275922,-6.49426 26.84765662,-11.04492 l 7.49804688,3.50195 15.6562495,7.31836 c 8.693485,4.06343 19.828524,2.12809 26.640626,-4.63086 a 13.003766,13.003766 0 0 0 0,-0.002 l 8.523437,-8.45898 8.521484,-8.45703 a 13.003766,13.003766 0 0 0 0.002,0 c 6.830618,-6.77957 8.839665,-17.94429 4.800782,-26.67969 a 13.003766,13.003766 0 0 0 -0.002,-0.002 L 66.28125,598.90625 a 13.003766,13.003766 0 0 0 -0.03711,-0.084 c -4.24e-4,-9.2e-4 -0.0015,-0.001 -0.002,-0.002 -2.349847,-5.08111 -4.164303,-9.00191 -5.917969,-12.57617 4.667221,-8.67 8.453315,-17.77445 11.318359,-27.19531 l 7.078125,-2.55274 0.02539,-0.01 a 13.003766,13.003766 0 0 0 0.002,0 l 16.390625,-5.91602 a 13.003766,13.003766 0 0 0 0.002,-0.002 c 8.893655,-3.2117 15.370875,-12.21084 15.591795,-21.66406 l 0.2832,-12.08399 a 13.003766,13.003766 0 0 0 0,-0.002 l 0.28126,-12.08398 c 0.22859,-9.84453 -6.38799,-19.47728 -15.660161,-22.79297 a 13.003766,13.003766 0 0 0 -0.002,0 l -15.865235,-5.67188 a 13.003766,13.003766 0 0 0 -0.103515,-0.0391 c -2.838731,-1.0147 -5.274145,-1.77752 -7.863282,-2.62891 -2.858244,-9.53323 -6.664817,-18.74502 -11.367187,-27.51758 l 2.896484,-6.12109 a 13.003766,13.003766 0 0 0 0,-0.002 c 0.0031,-0.007 0.0047,-0.011 0.0078,-0.0176 2.065657,-4.36503 3.94061,-8.43623 5.367187,-11.64844 0.711744,-1.60263 1.314082,-2.99066 1.830078,-4.25 0.246948,-0.60269 0.522036,-1.2906 0.802735,-2.07422 0.09201,-0.25687 0.355388,-1.00007 0.582031,-1.79101 -0.782607,2.7312 -0.12357,0.95562 0.412109,-1.23047 0.535498,-2.18535 0.556558,-3.79119 0.535157,-5.7168 l 0,-0.002 c -0.0405,-3.66945 -0.29974,-6.90121 -2.232422,-10.56445 -0.688685,-1.30535 -1.582565,-2.39741 -2.332031,-3.22852 -0.384483,-0.54361 -0.853969,-1.2495 -1.060547,-1.51562 -0.977,-1.25859 -1.920571,-2.33756 -2.826172,-3.34766 -1.874798,-2.09115 -4.029589,-4.33757 -6.234375,-6.55664 -2.205162,-2.21946 -4.439956,-4.38873 -6.517578,-6.27539 -1.000147,-0.90822 -2.072839,-1.86011 -3.332032,-2.84961 -0.259698,-0.20408 -0.95074,-0.66659 -1.472656,-1.04102 -0.849981,-0.78571 -1.949551,-1.70572 -3.273437,-2.41406 -3.794008,-2.02997 -7.132912,-2.25781 -10.921875,-2.25781 -1.903758,0 -3.455466,0.0234 -5.667969,0.58984 -2.212503,0.56646 -3.970308,1.22054 -1.113281,0.38867 -0.761735,0.22178 -1.475362,0.47621 -1.720704,0.56446 -0.748311,0.26916 -1.417404,0.5336 -2.023437,0.78125 -1.246481,0.50934 -2.624192,1.1052 -4.21875,1.80859 -3.204775,1.41371 -7.285227,3.27509 -11.6660156,5.32812 a 13.003766,13.003766 0 0 0 -0.00195,0 L 0.03125,385.55859 c -8.8025231,-4.71265 -18.045493,-8.52618 -27.613281,-11.38281 -0.846193,-2.57143 -1.600813,-4.98468 -2.607422,-7.80078 a 13.003766,13.003766 0 0 0 -0.01367,-0.0332 l -5.697266,-15.9375 a 13.003766,13.003766 0 0 0 0,-0.002 c -3.315689,-9.27218 -12.948435,-15.88875 -22.792968,-15.66015 a 13.003766,13.003766 0 0 0 -0.002,0 z m 105.99414,43.52148 c 0.675947,0.60791 0.956416,0.96454 0.566406,0.53125 -0.106754,-0.1186 -0.399144,-0.36538 -0.566406,-0.53125 z"
         id="path4273"
         style="color:#000000;clip-rule:nonzero;display:inline;overflow:visible;visibility:visible;opacity:1;isolation:auto;mix-blend-mode:normal;color-interpolation:sRGB;color-interpolation-filters:linearRGB;solid-color:#000000;solid-opacity:1;fill:#000000;fill-opacity:1;fill-rule:nonzero;stroke:none;stroke-width:1;stroke-linecap:butt;stroke-linejoin:miter;stroke-miterlimit:4;stroke-dasharray:none;stroke-dashoffset:0;stroke-opacity:1;marker:none;color-rendering:auto;image-rendering:auto;shape-rendering:auto;text-rendering:auto;enable-background:accumulate"
         inkscape:original="M -58.390625 347.74023 L -70.478516 348.02344 L -82.566406 348.30664 A 10.619681 10.619681 0 0 0 -92.3125 355.33594 L -98.212891 371.78516 A 10.619681 10.619681 0 0 0 -98.214844 371.78711 L -102.96484 385.03125 C -115.98721 388.32924 -128.46709 393.55253 -139.95508 400.51562 C -144.23842 397.96011 -149.63655 395.57375 -158.23828 391.5957 A 10.619681 10.619681 0 0 0 -158.24023 391.5957 L -168.65039 386.7832 A 10.619681 10.619681 0 0 0 -180.64258 388.94336 L -189.09961 397.4668 L -197.55664 405.99023 A 10.619681 10.619681 0 0 0 -199.64062 417.96484 L -192.32422 433.62305 A 10.619681 10.619681 0 0 0 -192.32227 433.62305 L -186.09766 446.94141 C -192.88836 458.39895 -197.95799 470.81518 -201.13281 483.75 C -201.78866 483.93991 -202.33596 484.07584 -203.05859 484.29688 C -206.62895 485.38896 -210.99501 486.85172 -215.48047 488.47461 L -231.2168 494.16797 A 10.619681 10.619681 0 0 0 -238.21875 504.40039 L -237.93555 516.54102 L -237.65234 528.68164 A 10.619681 10.619681 0 0 0 -230.63086 538.42578 L -214.27734 544.30859 L -200.86133 549.13281 C -197.62553 561.85915 -192.55063 574.06763 -185.80859 585.33594 L -192.17188 598.68555 L -199.87109 614.83984 A 10.619681 10.619681 0 0 0 -197.79297 626.91602 L -189.34961 635.35938 L -180.9043 643.80469 A 10.619681 10.619681 0 0 0 -168.88477 645.91016 L -152.77344 638.34766 A 10.619681 10.619681 0 0 0 -152.77148 638.3457 L -139.2168 631.98047 C -127.94782 638.69539 -115.74562 643.74562 -103.02734 646.95898 L -99.224609 657.68945 C -96.506519 665.36056 -94.021389 672.31113 -93.107422 674.6582 L -92.025391 677.43555 A 10.619681 10.619681 0 0 0 -82.130859 684.20312 L -70.111328 684.20312 L -58.089844 684.20312 A 10.619681 10.619681 0 0 0 -48.105469 677.19727 L -42.423828 661.49219 C -40.803921 657.01496 -39.344351 652.65512 -38.253906 649.08984 C -38.026466 648.34621 -37.885845 647.78041 -37.691406 647.10742 C -24.806695 643.92226 -12.438927 638.8564 -1.0253906 632.08203 L 12.417969 638.36133 L 28.076172 645.67969 A 10.619681 10.619681 0 0 0 40.052734 643.59766 L 48.576172 635.13867 L 57.097656 626.68164 A 10.619681 10.619681 0 0 0 59.255859 614.6875 L 54.441406 604.2793 L 54.443359 604.2793 C 50.481372 595.71231 48.107056 590.33126 45.564453 586.05664 C 52.520377 574.56445 57.737376 562.08091 61.027344 549.05664 L 74.332031 544.25586 A 10.619681 10.619681 0 0 0 74.333984 544.25586 L 90.724609 538.33984 A 10.619681 10.619681 0 0 0 97.734375 528.59961 L 98.017578 516.51562 L 98.298828 504.43164 A 10.619681 10.619681 0 0 0 91.257812 494.18555 L 75.289062 488.47656 A 10.619681 10.619681 0 0 0 75.289062 488.47461 C 70.755472 486.85408 66.368845 485.39433 62.816406 484.30469 C 62.213252 484.11968 61.774263 484.01067 61.220703 483.84766 C 57.989256 470.71429 52.801513 458.1169 45.845703 446.51758 L 51.580078 434.40039 L 51.580078 434.39844 C 53.612533 430.1039 55.457154 426.09579 56.824219 423.01758 C 57.507848 421.47825 58.06841 420.18287 58.505859 419.11523 C 58.724584 418.58142 58.908372 418.11981 59.099609 417.58594 C 59.195228 417.319 59.293468 417.04578 59.421875 416.59766 C 59.550232 416.14971 59.897915 416.13618 59.867188 413.375 C 59.808833 408.07763 58.56181 408.24528 58.111328 407.51562 C 57.660846 406.78598 57.321065 406.34336 56.972656 405.89453 C 56.275838 404.99688 55.561256 404.17403 54.736328 403.25391 C 53.086472 401.41366 51.050925 399.28714 48.958984 397.18164 C 46.867044 395.07614 44.753356 393.02679 42.925781 391.36719 C 42.011994 390.53739 41.195017 389.81794 40.300781 389.11523 C 39.853663 388.76388 39.414448 388.42318 38.679688 387.96484 C 37.944927 387.50651 38.149636 386.18164 32.666016 386.18164 C 29.91451 386.18164 29.951381 386.51684 29.519531 386.64258 C 29.087682 386.76831 28.824437 386.86352 28.564453 386.95703 C 28.044485 387.14406 27.587736 387.32479 27.058594 387.54102 C 26.000309 387.97346 24.708275 388.53038 23.169922 389.20898 C 20.093217 390.56619 16.077732 392.39687 11.773438 394.41406 L -0.421875 400.13086 C -12.043481 393.17445 -24.664088 387.98933 -37.820312 384.76953 C -37.978848 384.23202 -38.084525 383.80866 -38.263672 383.22461 C -39.353325 379.67217 -40.813074 375.28553 -42.433594 370.75195 A 10.619681 10.619681 0 0 0 -42.435547 370.75195 L -48.144531 354.78125 A 10.619681 10.619681 0 0 0 -58.390625 347.74023 z "
         inkscape:radius="13.002466"
         sodipodi:type="inkscape:offset" />
      <path
         transform="translate(-240,-75.714286)"
         d="m -58.390625,347.74023 -12.087891,0.28321 -12.08789,0.2832 a 10.619681,10.619681 0 0 0 -9.746094,7.0293 l -5.900391,16.44922 a 10.619681,10.619681 0 0 0 -0.002,0.002 l -4.749996,13.24414 c -13.02237,3.29799 -25.50225,8.52127 -36.99024,15.48437 -4.28334,-2.55551 -9.68147,-4.94187 -18.2832,-8.91992 a 10.619681,10.619681 0 0 0 -0.002,0 l -10.41016,-4.8125 a 10.619681,10.619681 0 0 0 -11.99219,2.16016 l -8.45703,8.52344 -8.45703,8.52343 a 10.619681,10.619681 0 0 0 -2.08398,11.97461 l 7.3164,15.65821 a 10.619681,10.619681 0 0 0 0.002,0 l 6.22461,13.31836 c -6.7907,11.45754 -11.86033,23.87377 -15.03515,36.80859 -0.65585,0.18991 -1.20315,0.32584 -1.92578,0.54688 -3.57036,1.09208 -7.93642,2.55484 -12.42188,4.17773 l -15.73633,5.69336 a 10.619681,10.619681 0 0 0 -7.00195,10.23242 l 0.2832,12.14063 0.28321,12.14062 a 10.619681,10.619681 0 0 0 7.02148,9.74414 l 16.35352,5.88281 13.41601,4.82422 c 3.2358,12.72634 8.3107,24.93482 15.05274,36.20313 l -6.36329,13.34961 -7.69921,16.15429 a 10.619681,10.619681 0 0 0 2.07812,12.07618 l 8.44336,8.44336 8.44531,8.44531 a 10.619681,10.619681 0 0 0 12.01953,2.10547 l 16.11133,-7.5625 a 10.619681,10.619681 0 0 0 0.002,-0.002 l 13.55468,-6.36523 c 11.26898,6.71492 23.47118,11.76515 36.18946,14.97851 l 3.802731,10.73047 c 2.71809,7.67111 5.20322,14.62168 6.117187,16.96875 l 1.082031,2.77735 a 10.619681,10.619681 0 0 0 9.894532,6.76757 l 12.019531,0 12.021484,0 a 10.619681,10.619681 0 0 0 9.984375,-7.00585 l 5.681641,-15.70508 c 1.619907,-4.47723 3.079477,-8.83707 4.169922,-12.40235 0.22744,-0.74363 0.368061,-1.30943 0.5625,-1.98242 12.884711,-3.18516 25.252479,-8.25102 36.6660154,-15.02539 l 13.4433596,6.2793 15.658203,7.31836 a 10.619681,10.619681 0 0 0 11.976562,-2.08203 l 8.523438,-8.45899 8.521484,-8.45703 a 10.619681,10.619681 0 0 0 2.158203,-11.99414 l -4.814453,-10.4082 0.002,0 c -3.961987,-8.56699 -6.336303,-13.94804 -8.878906,-18.22266 6.955924,-11.49219 12.172923,-23.97573 15.462891,-37 l 13.304687,-4.80078 a 10.619681,10.619681 0 0 0 0.002,0 l 16.390625,-5.91602 a 10.619681,10.619681 0 0 0 7.009766,-9.74023 l 0.283203,-12.08399 0.28125,-12.08398 a 10.619681,10.619681 0 0 0 -7.041016,-10.24609 l -15.96875,-5.70899 a 10.619681,10.619681 0 0 0 0,-0.002 c -4.53359,-1.62053 -8.920217,-3.08028 -12.472656,-4.16992 -0.603154,-0.18501 -1.042143,-0.29402 -1.595703,-0.45703 -3.231447,-13.13337 -8.41919,-25.73076 -15.375,-37.33008 l 5.734375,-12.11719 0,-0.002 c 2.032455,-4.29454 3.877076,-8.30265 5.244141,-11.38086 0.683629,-1.53933 1.244191,-2.83471 1.68164,-3.90235 0.218725,-0.53381 0.402513,-0.99542 0.59375,-1.52929 0.09562,-0.26694 0.193859,-0.54016 0.322266,-0.98828 0.128357,-0.44795 0.476041,-0.46148 0.445313,-3.22266 -0.05835,-5.29737 -1.305378,-5.12973 -1.75586,-5.85938 -0.450482,-0.72964 -0.790263,-1.17226 -1.138672,-1.62109 -0.696818,-0.89765 -1.4114,-1.7205 -2.236328,-2.64062 -1.649856,-1.84025 -3.685403,-3.96677 -5.777344,-6.07227 -2.09194,-2.1055 -4.205628,-4.15485 -6.033203,-5.81445 -0.913787,-0.8298 -1.730764,-1.54925 -2.625,-2.25196 -0.447118,-0.35135 -0.886333,-0.69205 -1.621093,-1.15039 -0.734761,-0.45833 -0.530052,-1.7832 -6.013672,-1.7832 -2.751506,0 -2.714635,0.3352 -3.146485,0.46094 -0.431849,0.12573 -0.695094,0.22094 -0.955078,0.31445 -0.519968,0.18703 -0.976717,0.36776 -1.505859,0.58399 -1.058285,0.43244 -2.350319,0.98936 -3.888672,1.66796 -3.076705,1.35721 -7.092189,3.18789 -11.396484,5.20508 l -12.195313,5.7168 c -11.621606,-6.95641 -24.242212,-12.14153 -37.398437,-15.36133 -0.158535,-0.53751 -0.264213,-0.96087 -0.44336,-1.54492 -1.089653,-3.55244 -2.549402,-7.93908 -4.169922,-12.47266 a 10.619681,10.619681 0 0 0 -0.002,0 l -5.708984,-15.9707 a 10.619681,10.619681 0 0 0 -10.246094,-7.04102 z"
         id="path3465"
         style="color:#000000;clip-rule:nonzero;display:inline;overflow:visible;visibility:visible;opacity:1;isolation:auto;mix-blend-mode:normal;color-interpolation:sRGB;color-interpolation-filters:linearRGB;solid-color:#000000;solid-opacity:1;fill:#ff00ca;fill-opacity:1;fill-rule:nonzero;stroke:none;stroke-width:1;stroke-linecap:butt;stroke-linejoin:miter;stroke-miterlimit:4;stroke-dasharray:none;stroke-dashoffset:0;stroke-opacity:1;marker:none;color-rendering:auto;image-rendering:auto;shape-rendering:auto;text-rendering:auto;enable-background:accumulate"
         inkscape:original="M -58.142578 358.35547 L -70.230469 358.63867 L -82.318359 358.92188 L -88.21875 375.37109 L -94.117188 391.82031 L -93.746094 393.66211 A 124.70052 124.70052 0 0 0 -140.49609 413.29297 C -144.10926 409.57473 -148.67099 407.72022 -162.69531 401.23438 L -173.10547 396.42188 L -181.5625 404.94531 L -190.01953 413.46875 L -182.70312 429.12695 L -175.38477 444.7832 L -173.2832 446.21484 A 124.70052 124.70052 0 0 0 -192.43164 492.89453 C -192.85094 492.84543 -193.19463 492.81385 -193.40234 492.81055 C -194.90373 492.78665 -203.21269 495.32769 -211.86719 498.45898 L -227.60352 504.15234 L -227.32031 516.29297 L -227.03711 528.43359 L -210.68359 534.31641 L -194.33008 540.19727 L -192.25781 539.7793 A 124.70052 124.70052 0 0 0 -173.05664 585.90625 L -174.88672 587.10156 L -182.58594 603.25391 L -190.28516 619.4082 L -181.8418 627.85156 L -173.39648 636.29688 L -157.28516 628.73438 L -141.17578 621.16992 L -139.86914 619.19141 A 124.70052 124.70052 0 0 0 -93.746094 638.33008 L -94.134766 640.25781 L -89.214844 654.14258 C -86.508994 661.77914 -83.807851 669.27683 -83.212891 670.80469 L -82.130859 673.58398 L -70.111328 673.58398 L -58.089844 673.58398 L -52.408203 657.87891 C -49.282883 649.24091 -46.745631 640.94476 -46.769531 639.44336 C -46.772931 639.22867 -46.809048 638.86394 -46.861328 638.42383 A 124.70052 124.70052 0 0 0 -0.24414062 619.22461 L 1.2558594 621.42578 L 16.914062 628.74219 L 32.572266 636.06055 L 41.095703 627.60156 L 49.619141 619.14453 L 44.804688 608.73633 C 38.350034 594.77946 36.481402 590.19496 32.798828 586.58984 A 124.70052 124.70052 0 0 0 52.400391 539.79102 L 54.337891 540.18164 L 70.728516 534.26758 L 87.119141 528.35156 L 87.402344 516.26758 L 87.683594 504.18359 L 71.714844 498.47461 C 62.931456 495.33499 54.622444 492.78665 53.25 492.81055 C 53.08697 492.81355 52.825222 492.83575 52.501953 492.87305 A 124.70052 124.70052 0 0 0 33.261719 446.19727 L 34.705078 445.23633 L 41.982422 429.85742 C 45.985313 421.39945 49.2561 414.03548 49.25 413.49219 C 49.23586 412.20857 33.927316 396.80078 32.666016 396.80078 C 32.136556 396.80078 24.762167 400.05384 16.279297 404.0293 L 0.85742188 411.25781 L -0.10546875 412.70312 A 124.70052 124.70052 0 0 0 -46.830078 393.50195 C -46.796118 393.20144 -46.772231 392.94598 -46.769531 392.79102 C -46.745601 391.41858 -49.293984 383.10956 -52.433594 374.32617 L -58.142578 358.35547 z "
         inkscape:radius="10.618619"
         sodipodi:type="inkscape:offset" />
      <path
         inkscape:connector-curvature="0"
         id="path3452"
         d="m -298.14258,282.64118 -12.08789,0.2832 -12.08789,0.28321 -5.90039,16.44921 -5.89844,16.44922 0.3711,1.8418 a 124.70052,124.70052 0 0 0 -46.75,19.63086 c -3.61317,-3.71824 -8.1749,-5.57275 -22.19922,-12.05859 l -10.41016,-4.8125 -8.45703,8.52343 -8.45703,8.52344 7.31641,15.6582 7.31835,15.65625 2.10157,1.43164 a 124.70052,124.70052 0 0 0 -19.14844,46.67969 c -0.4193,-0.0491 -0.76299,-0.0807 -0.9707,-0.084 -1.50139,-0.0239 -9.81035,2.51714 -18.46485,5.64843 l -15.73633,5.69336 0.28321,12.14063 0.2832,12.14062 16.35352,5.88282 16.35351,5.88086 2.07227,-0.41797 a 124.70052,124.70052 0 0 0 19.20117,46.12695 l -1.83008,1.19531 -7.69922,16.15235 -7.69922,16.15429 8.44336,8.44336 8.44532,8.44532 16.11132,-7.5625 16.10938,-7.56446 1.30664,-1.97851 a 124.70052,124.70052 0 0 0 46.12305,19.13867 l -0.38868,1.92773 4.91993,13.88477 c 2.70585,7.63656 5.40699,15.13425 6.00195,16.66211 l 1.08203,2.77929 12.01953,0 12.02149,0 5.68164,-15.70507 c 3.12532,-8.638 5.66257,-16.93415 5.63867,-18.43555 -0.003,-0.21469 -0.0395,-0.57942 -0.0918,-1.01953 a 124.70052,124.70052 0 0 0 46.61719,-19.19922 l 1.5,2.20117 15.6582,7.31641 15.65821,7.31836 8.52343,-8.45899 8.52344,-8.45703 -4.81445,-10.4082 c -6.45466,-13.95687 -8.32329,-18.54137 -12.00586,-22.14649 a 124.70052,124.70052 0 0 0 19.60156,-46.79882 l 1.9375,0.39062 16.39063,-5.91406 16.39062,-5.91602 0.2832,-12.08398 0.28125,-12.08399 -15.96875,-5.70898 c -8.78338,-3.13962 -17.0924,-5.68796 -18.46484,-5.66406 -0.16303,0.003 -0.42478,0.0252 -0.74805,0.0625 a 124.70052,124.70052 0 0 0 -19.24023,-46.67578 l 1.44336,-0.96094 7.27734,-15.37891 c 4.00289,-8.45797 7.27368,-15.82194 7.26758,-16.36523 -0.0141,-1.28362 -15.32268,-16.69141 -16.58398,-16.69141 -0.52946,0 -7.90385,3.25306 -16.38672,7.22852 l -15.42188,7.22851 -0.96289,1.44531 a 124.70052,124.70052 0 0 0 -46.72461,-19.20117 c 0.034,-0.30051 0.0579,-0.55597 0.0606,-0.71093 0.0239,-1.37244 -2.52445,-9.68146 -5.66406,-18.46485 l -5.70899,-15.9707 z"
         style="color:#000000;clip-rule:nonzero;display:inline;overflow:visible;visibility:visible;opacity:1;isolation:auto;mix-blend-mode:normal;color-interpolation:sRGB;color-interpolation-filters:linearRGB;solid-color:#000000;solid-opacity:1;fill:#000000;fill-opacity:1;fill-rule:nonzero;stroke:none;stroke-width:1;stroke-linecap:butt;stroke-linejoin:miter;stroke-miterlimit:4;stroke-dasharray:none;stroke-dashoffset:0;stroke-opacity:1;marker:none;color-rendering:auto;image-rendering:auto;shape-rendering:auto;text-rendering:auto;enable-background:accumulate" />
    </g>
    <g
       transform="matrix(0.92387953,-0.38268343,0.38268343,0.92387953,490.03133,-173.45095)"
       id="g4280">
      <path
         sodipodi:type="inkscape:offset"
         inkscape:radius="13.002466"
         inkscape:original="M -58.390625 347.74023 L -70.478516 348.02344 L -82.566406 348.30664 A 10.619681 10.619681 0 0 0 -92.3125 355.33594 L -98.212891 371.78516 A 10.619681 10.619681 0 0 0 -98.214844 371.78711 L -102.96484 385.03125 C -115.98721 388.32924 -128.46709 393.55253 -139.95508 400.51562 C -144.23842 397.96011 -149.63655 395.57375 -158.23828 391.5957 A 10.619681 10.619681 0 0 0 -158.24023 391.5957 L -168.65039 386.7832 A 10.619681 10.619681 0 0 0 -180.64258 388.94336 L -189.09961 397.4668 L -197.55664 405.99023 A 10.619681 10.619681 0 0 0 -199.64062 417.96484 L -192.32422 433.62305 A 10.619681 10.619681 0 0 0 -192.32227 433.62305 L -186.09766 446.94141 C -192.88836 458.39895 -197.95799 470.81518 -201.13281 483.75 C -201.78866 483.93991 -202.33596 484.07584 -203.05859 484.29688 C -206.62895 485.38896 -210.99501 486.85172 -215.48047 488.47461 L -231.2168 494.16797 A 10.619681 10.619681 0 0 0 -238.21875 504.40039 L -237.93555 516.54102 L -237.65234 528.68164 A 10.619681 10.619681 0 0 0 -230.63086 538.42578 L -214.27734 544.30859 L -200.86133 549.13281 C -197.62553 561.85915 -192.55063 574.06763 -185.80859 585.33594 L -192.17188 598.68555 L -199.87109 614.83984 A 10.619681 10.619681 0 0 0 -197.79297 626.91602 L -189.34961 635.35938 L -180.9043 643.80469 A 10.619681 10.619681 0 0 0 -168.88477 645.91016 L -152.77344 638.34766 A 10.619681 10.619681 0 0 0 -152.77148 638.3457 L -139.2168 631.98047 C -127.94782 638.69539 -115.74562 643.74562 -103.02734 646.95898 L -99.224609 657.68945 C -96.506519 665.36056 -94.021389 672.31113 -93.107422 674.6582 L -92.025391 677.43555 A 10.619681 10.619681 0 0 0 -82.130859 684.20312 L -70.111328 684.20312 L -58.089844 684.20312 A 10.619681 10.619681 0 0 0 -48.105469 677.19727 L -42.423828 661.49219 C -40.803921 657.01496 -39.344351 652.65512 -38.253906 649.08984 C -38.026466 648.34621 -37.885845 647.78041 -37.691406 647.10742 C -24.806695 643.92226 -12.438927 638.8564 -1.0253906 632.08203 L 12.417969 638.36133 L 28.076172 645.67969 A 10.619681 10.619681 0 0 0 40.052734 643.59766 L 48.576172 635.13867 L 57.097656 626.68164 A 10.619681 10.619681 0 0 0 59.255859 614.6875 L 54.441406 604.2793 L 54.443359 604.2793 C 50.481372 595.71231 48.107056 590.33126 45.564453 586.05664 C 52.520377 574.56445 57.737376 562.08091 61.027344 549.05664 L 74.332031 544.25586 A 10.619681 10.619681 0 0 0 74.333984 544.25586 L 90.724609 538.33984 A 10.619681 10.619681 0 0 0 97.734375 528.59961 L 98.017578 516.51562 L 98.298828 504.43164 A 10.619681 10.619681 0 0 0 91.257812 494.18555 L 75.289062 488.47656 A 10.619681 10.619681 0 0 0 75.289062 488.47461 C 70.755472 486.85408 66.368845 485.39433 62.816406 484.30469 C 62.213252 484.11968 61.774263 484.01067 61.220703 483.84766 C 57.989256 470.71429 52.801513 458.1169 45.845703 446.51758 L 51.580078 434.40039 L 51.580078 434.39844 C 53.612533 430.1039 55.457154 426.09579 56.824219 423.01758 C 57.507848 421.47825 58.06841 420.18287 58.505859 419.11523 C 58.724584 418.58142 58.908372 418.11981 59.099609 417.58594 C 59.195228 417.319 59.293468 417.04578 59.421875 416.59766 C 59.550232 416.14971 59.897915 416.13618 59.867188 413.375 C 59.808833 408.07763 58.56181 408.24528 58.111328 407.51562 C 57.660846 406.78598 57.321065 406.34336 56.972656 405.89453 C 56.275838 404.99688 55.561256 404.17403 54.736328 403.25391 C 53.086472 401.41366 51.050925 399.28714 48.958984 397.18164 C 46.867044 395.07614 44.753356 393.02679 42.925781 391.36719 C 42.011994 390.53739 41.195017 389.81794 40.300781 389.11523 C 39.853663 388.76388 39.414448 388.42318 38.679688 387.96484 C 37.944927 387.50651 38.149636 386.18164 32.666016 386.18164 C 29.91451 386.18164 29.951381 386.51684 29.519531 386.64258 C 29.087682 386.76831 28.824437 386.86352 28.564453 386.95703 C 28.044485 387.14406 27.587736 387.32479 27.058594 387.54102 C 26.000309 387.97346 24.708275 388.53038 23.169922 389.20898 C 20.093217 390.56619 16.077732 392.39687 11.773438 394.41406 L -0.421875 400.13086 C -12.043481 393.17445 -24.664088 387.98933 -37.820312 384.76953 C -37.978848 384.23202 -38.084525 383.80866 -38.263672 383.22461 C -39.353325 379.67217 -40.813074 375.28553 -42.433594 370.75195 A 10.619681 10.619681 0 0 0 -42.435547 370.75195 L -48.144531 354.78125 A 10.619681 10.619681 0 0 0 -58.390625 347.74023 z "
         style="color:#000000;clip-rule:nonzero;display:inline;overflow:visible;visibility:visible;opacity:1;isolation:auto;mix-blend-mode:normal;color-interpolation:sRGB;color-interpolation-filters:linearRGB;solid-color:#000000;solid-opacity:1;fill:#000000;fill-opacity:1;fill-rule:nonzero;stroke:none;stroke-width:1;stroke-linecap:butt;stroke-linejoin:miter;stroke-miterlimit:4;stroke-dasharray:none;stroke-dashoffset:0;stroke-opacity:1;marker:none;color-rendering:auto;image-rendering:auto;shape-rendering:auto;text-rendering:auto;enable-background:accumulate"
         id="path4282"
         d="m -58.695312,334.74219 -12.087891,0.2832 -12.087891,0.2832 c -9.467731,0.22232 -18.480496,6.72116 -21.679686,15.63477 a 13.003766,13.003766 0 0 0 0,0.002 l -5.89258,16.42969 -0.008,0.0195 a 13.003766,13.003766 0 0 0 -0.002,0.004 l -2.51954,7.02539 c -9.41163,2.86895 -18.50661,6.65789 -27.16796,11.32617 -3.59075,-1.7652 -7.53053,-3.59181 -12.64063,-5.95508 a 13.003766,13.003766 0 0 0 -0.002,-0.002 l -0.006,-0.002 -10.4043,-4.81055 a 13.003766,13.003766 0 0 0 -0.004,0 c -8.73522,-4.03587 -19.89592,-2.02557 -26.67382,4.80469 a 13.003766,13.003766 0 0 0 -0.002,0 l -8.45703,8.52343 -8.45703,8.52344 0.002,0 c -6.75857,6.81045 -8.69712,17.94146 -4.63672,26.63477 a 13.003766,13.003766 0 0 0 0.002,0.002 l 7.3164,15.6582 a 13.003766,13.003766 0 0 0 0.002,0.002 13.003766,13.003766 0 0 0 0.008,0.0156 l 3.44141,7.36328 c -4.56776,8.61663 -8.27515,17.64899 -11.07032,26.99024 -2.68345,0.88288 -5.25017,1.68936 -8.18164,2.75 l -15.73632,5.69336 a 13.003766,13.003766 0 0 0 -0.002,0 c -9.23047,3.34152 -15.80246,12.94768 -15.57422,22.76171 l 0.28321,12.14063 0.2832,12.14063 a 13.003766,13.003766 0 0 0 0,0.002 c 0.22141,9.46221 6.71129,18.46952 15.61719,21.67383 a 13.003766,13.003766 0 0 0 0.002,0 l 16.35352,5.88281 a 13.003766,13.003766 0 0 0 0,0.002 l 7.20898,2.5918 c 2.81637,9.21198 6.51613,18.11966 11.05859,26.61523 l -3.49804,7.33789 a 13.003766,13.003766 0 0 0 -0.002,0.002 l -7.69922,16.15429 a 13.003766,13.003766 0 0 0 0,0.002 c -4.16489,8.74327 -2.22488,20.01319 4.62305,26.86133 l 8.44336,8.44335 8.44336,8.44532 c 6.81499,6.81549 18.01045,8.77678 26.73633,4.68359 a 13.003766,13.003766 0 0 0 0.004,-0.002 l 16.11133,-7.5625 a 13.003766,13.003766 0 0 0 0.004,-0.002 l 7.58398,-3.5625 c 8.49133,4.52528 17.39315,8.21113 26.59766,11.01368 l 1.58203,4.46679 c 2.72524,7.69129 5.08428,14.33513 6.25586,17.34375 a 13.003766,13.003766 0 0 0 0.002,0.002 l 1.08204,2.77734 c 3.42699,8.79892 12.564972,15.04716 22.007808,15.04883 a 13.003766,13.003766 0 0 0 0.002,0 l 12.019531,0 12.021484,0 a 13.003766,13.003766 0 0 0 0.002,0 c 9.633294,-0.001 18.930817,-6.52562 22.208985,-15.58399 l 5.68164,-15.70507 c 1.067333,-2.94998 1.879359,-5.53534 2.765625,-8.23243 9.290949,-2.79613 18.275922,-6.49426 26.84765662,-11.04492 l 7.49804688,3.50195 15.6562495,7.31836 c 8.693485,4.06343 19.828524,2.12809 26.640626,-4.63086 a 13.003766,13.003766 0 0 0 0,-0.002 l 8.523437,-8.45898 8.521484,-8.45703 a 13.003766,13.003766 0 0 0 0.002,0 c 6.830618,-6.77957 8.839665,-17.94429 4.800782,-26.67969 a 13.003766,13.003766 0 0 0 -0.002,-0.002 L 66.28125,598.90625 a 13.003766,13.003766 0 0 0 -0.03711,-0.084 c -4.24e-4,-9.2e-4 -0.0015,-0.001 -0.002,-0.002 -2.349847,-5.08111 -4.164303,-9.00191 -5.917969,-12.57617 4.667221,-8.67 8.453315,-17.77445 11.318359,-27.19531 l 7.078125,-2.55274 0.02539,-0.01 a 13.003766,13.003766 0 0 0 0.002,0 l 16.390625,-5.91602 a 13.003766,13.003766 0 0 0 0.002,-0.002 c 8.893655,-3.2117 15.370875,-12.21084 15.591795,-21.66406 l 0.2832,-12.08399 a 13.003766,13.003766 0 0 0 0,-0.002 l 0.28126,-12.08398 c 0.22859,-9.84453 -6.38799,-19.47728 -15.660161,-22.79297 a 13.003766,13.003766 0 0 0 -0.002,0 l -15.865235,-5.67188 a 13.003766,13.003766 0 0 0 -0.103515,-0.0391 c -2.838731,-1.0147 -5.274145,-1.77752 -7.863282,-2.62891 -2.858244,-9.53323 -6.664817,-18.74502 -11.367187,-27.51758 l 2.896484,-6.12109 a 13.003766,13.003766 0 0 0 0,-0.002 c 0.0031,-0.007 0.0047,-0.011 0.0078,-0.0176 2.065657,-4.36503 3.94061,-8.43623 5.367187,-11.64844 0.711744,-1.60263 1.314082,-2.99066 1.830078,-4.25 0.246948,-0.60269 0.522036,-1.2906 0.802735,-2.07422 0.09201,-0.25687 0.355388,-1.00007 0.582031,-1.79101 -0.782607,2.7312 -0.12357,0.95562 0.412109,-1.23047 0.535498,-2.18535 0.556558,-3.79119 0.535157,-5.7168 l 0,-0.002 c -0.0405,-3.66945 -0.29974,-6.90121 -2.232422,-10.56445 -0.688685,-1.30535 -1.582565,-2.39741 -2.332031,-3.22852 -0.384483,-0.54361 -0.853969,-1.2495 -1.060547,-1.51562 -0.977,-1.25859 -1.920571,-2.33756 -2.826172,-3.34766 -1.874798,-2.09115 -4.029589,-4.33757 -6.234375,-6.55664 -2.205162,-2.21946 -4.439956,-4.38873 -6.517578,-6.27539 -1.000147,-0.90822 -2.072839,-1.86011 -3.332032,-2.84961 -0.259698,-0.20408 -0.95074,-0.66659 -1.472656,-1.04102 -0.849981,-0.78571 -1.949551,-1.70572 -3.273437,-2.41406 -3.794008,-2.02997 -7.132912,-2.25781 -10.921875,-2.25781 -1.903758,0 -3.455466,0.0234 -5.667969,0.58984 -2.212503,0.56646 -3.970308,1.22054 -1.113281,0.38867 -0.761735,0.22178 -1.475362,0.47621 -1.720704,0.56446 -0.748311,0.26916 -1.417404,0.5336 -2.023437,0.78125 -1.246481,0.50934 -2.624192,1.1052 -4.21875,1.80859 -3.204775,1.41371 -7.285227,3.27509 -11.6660156,5.32812 a 13.003766,13.003766 0 0 0 -0.00195,0 L 0.03125,385.55859 c -8.8025231,-4.71265 -18.045493,-8.52618 -27.613281,-11.38281 -0.846193,-2.57143 -1.600813,-4.98468 -2.607422,-7.80078 a 13.003766,13.003766 0 0 0 -0.01367,-0.0332 l -5.697266,-15.9375 a 13.003766,13.003766 0 0 0 0,-0.002 c -3.315689,-9.27218 -12.948435,-15.88875 -22.792968,-15.66015 a 13.003766,13.003766 0 0 0 -0.002,0 z m 105.99414,43.52148 c 0.675947,0.60791 0.956416,0.96454 0.566406,0.53125 -0.106754,-0.1186 -0.399144,-0.36538 -0.566406,-0.53125 z"
         transform="translate(-240,-75.714286)" />
      <path
         sodipodi:type="inkscape:offset"
         inkscape:radius="10.618619"
         inkscape:original="M -58.142578 358.35547 L -70.230469 358.63867 L -82.318359 358.92188 L -88.21875 375.37109 L -94.117188 391.82031 L -93.746094 393.66211 A 124.70052 124.70052 0 0 0 -140.49609 413.29297 C -144.10926 409.57473 -148.67099 407.72022 -162.69531 401.23438 L -173.10547 396.42188 L -181.5625 404.94531 L -190.01953 413.46875 L -182.70312 429.12695 L -175.38477 444.7832 L -173.2832 446.21484 A 124.70052 124.70052 0 0 0 -192.43164 492.89453 C -192.85094 492.84543 -193.19463 492.81385 -193.40234 492.81055 C -194.90373 492.78665 -203.21269 495.32769 -211.86719 498.45898 L -227.60352 504.15234 L -227.32031 516.29297 L -227.03711 528.43359 L -210.68359 534.31641 L -194.33008 540.19727 L -192.25781 539.7793 A 124.70052 124.70052 0 0 0 -173.05664 585.90625 L -174.88672 587.10156 L -182.58594 603.25391 L -190.28516 619.4082 L -181.8418 627.85156 L -173.39648 636.29688 L -157.28516 628.73438 L -141.17578 621.16992 L -139.86914 619.19141 A 124.70052 124.70052 0 0 0 -93.746094 638.33008 L -94.134766 640.25781 L -89.214844 654.14258 C -86.508994 661.77914 -83.807851 669.27683 -83.212891 670.80469 L -82.130859 673.58398 L -70.111328 673.58398 L -58.089844 673.58398 L -52.408203 657.87891 C -49.282883 649.24091 -46.745631 640.94476 -46.769531 639.44336 C -46.772931 639.22867 -46.809048 638.86394 -46.861328 638.42383 A 124.70052 124.70052 0 0 0 -0.24414062 619.22461 L 1.2558594 621.42578 L 16.914062 628.74219 L 32.572266 636.06055 L 41.095703 627.60156 L 49.619141 619.14453 L 44.804688 608.73633 C 38.350034 594.77946 36.481402 590.19496 32.798828 586.58984 A 124.70052 124.70052 0 0 0 52.400391 539.79102 L 54.337891 540.18164 L 70.728516 534.26758 L 87.119141 528.35156 L 87.402344 516.26758 L 87.683594 504.18359 L 71.714844 498.47461 C 62.931456 495.33499 54.622444 492.78665 53.25 492.81055 C 53.08697 492.81355 52.825222 492.83575 52.501953 492.87305 A 124.70052 124.70052 0 0 0 33.261719 446.19727 L 34.705078 445.23633 L 41.982422 429.85742 C 45.985313 421.39945 49.2561 414.03548 49.25 413.49219 C 49.23586 412.20857 33.927316 396.80078 32.666016 396.80078 C 32.136556 396.80078 24.762167 400.05384 16.279297 404.0293 L 0.85742188 411.25781 L -0.10546875 412.70312 A 124.70052 124.70052 0 0 0 -46.830078 393.50195 C -46.796118 393.20144 -46.772231 392.94598 -46.769531 392.79102 C -46.745601 391.41858 -49.293984 383.10956 -52.433594 374.32617 L -58.142578 358.35547 z "
         style="color:#000000;clip-rule:nonzero;display:inline;overflow:visible;visibility:visible;opacity:1;isolation:auto;mix-blend-mode:normal;color-interpolation:sRGB;color-interpolation-filters:linearRGB;solid-color:#000000;solid-opacity:1;fill:#ff00ca;fill-opacity:1;fill-rule:nonzero;stroke:none;stroke-width:1;stroke-linecap:butt;stroke-linejoin:miter;stroke-miterlimit:4;stroke-dasharray:none;stroke-dashoffset:0;stroke-opacity:1;marker:none;color-rendering:auto;image-rendering:auto;shape-rendering:auto;text-rendering:auto;enable-background:accumulate"
         id="path4284"
         d="m -58.390625,347.74023 -12.087891,0.28321 -12.08789,0.2832 a 10.619681,10.619681 0 0 0 -9.746094,7.0293 l -5.900391,16.44922 a 10.619681,10.619681 0 0 0 -0.002,0.002 l -4.749996,13.24414 c -13.02237,3.29799 -25.50225,8.52127 -36.99024,15.48437 -4.28334,-2.55551 -9.68147,-4.94187 -18.2832,-8.91992 a 10.619681,10.619681 0 0 0 -0.002,0 l -10.41016,-4.8125 a 10.619681,10.619681 0 0 0 -11.99219,2.16016 l -8.45703,8.52344 -8.45703,8.52343 a 10.619681,10.619681 0 0 0 -2.08398,11.97461 l 7.3164,15.65821 a 10.619681,10.619681 0 0 0 0.002,0 l 6.22461,13.31836 c -6.7907,11.45754 -11.86033,23.87377 -15.03515,36.80859 -0.65585,0.18991 -1.20315,0.32584 -1.92578,0.54688 -3.57036,1.09208 -7.93642,2.55484 -12.42188,4.17773 l -15.73633,5.69336 a 10.619681,10.619681 0 0 0 -7.00195,10.23242 l 0.2832,12.14063 0.28321,12.14062 a 10.619681,10.619681 0 0 0 7.02148,9.74414 l 16.35352,5.88281 13.41601,4.82422 c 3.2358,12.72634 8.3107,24.93482 15.05274,36.20313 l -6.36329,13.34961 -7.69921,16.15429 a 10.619681,10.619681 0 0 0 2.07812,12.07618 l 8.44336,8.44336 8.44531,8.44531 a 10.619681,10.619681 0 0 0 12.01953,2.10547 l 16.11133,-7.5625 a 10.619681,10.619681 0 0 0 0.002,-0.002 l 13.55468,-6.36523 c 11.26898,6.71492 23.47118,11.76515 36.18946,14.97851 l 3.802731,10.73047 c 2.71809,7.67111 5.20322,14.62168 6.117187,16.96875 l 1.082031,2.77735 a 10.619681,10.619681 0 0 0 9.894532,6.76757 l 12.019531,0 12.021484,0 a 10.619681,10.619681 0 0 0 9.984375,-7.00585 l 5.681641,-15.70508 c 1.619907,-4.47723 3.079477,-8.83707 4.169922,-12.40235 0.22744,-0.74363 0.368061,-1.30943 0.5625,-1.98242 12.884711,-3.18516 25.252479,-8.25102 36.6660154,-15.02539 l 13.4433596,6.2793 15.658203,7.31836 a 10.619681,10.619681 0 0 0 11.976562,-2.08203 l 8.523438,-8.45899 8.521484,-8.45703 a 10.619681,10.619681 0 0 0 2.158203,-11.99414 l -4.814453,-10.4082 0.002,0 c -3.961987,-8.56699 -6.336303,-13.94804 -8.878906,-18.22266 6.955924,-11.49219 12.172923,-23.97573 15.462891,-37 l 13.304687,-4.80078 a 10.619681,10.619681 0 0 0 0.002,0 l 16.390625,-5.91602 a 10.619681,10.619681 0 0 0 7.009766,-9.74023 l 0.283203,-12.08399 0.28125,-12.08398 a 10.619681,10.619681 0 0 0 -7.041016,-10.24609 l -15.96875,-5.70899 a 10.619681,10.619681 0 0 0 0,-0.002 c -4.53359,-1.62053 -8.920217,-3.08028 -12.472656,-4.16992 -0.603154,-0.18501 -1.042143,-0.29402 -1.595703,-0.45703 -3.231447,-13.13337 -8.41919,-25.73076 -15.375,-37.33008 l 5.734375,-12.11719 0,-0.002 c 2.032455,-4.29454 3.877076,-8.30265 5.244141,-11.38086 0.683629,-1.53933 1.244191,-2.83471 1.68164,-3.90235 0.218725,-0.53381 0.402513,-0.99542 0.59375,-1.52929 0.09562,-0.26694 0.193859,-0.54016 0.322266,-0.98828 0.128357,-0.44795 0.476041,-0.46148 0.445313,-3.22266 -0.05835,-5.29737 -1.305378,-5.12973 -1.75586,-5.85938 -0.450482,-0.72964 -0.790263,-1.17226 -1.138672,-1.62109 -0.696818,-0.89765 -1.4114,-1.7205 -2.236328,-2.64062 -1.649856,-1.84025 -3.685403,-3.96677 -5.777344,-6.07227 -2.09194,-2.1055 -4.205628,-4.15485 -6.033203,-5.81445 -0.913787,-0.8298 -1.730764,-1.54925 -2.625,-2.25196 -0.447118,-0.35135 -0.886333,-0.69205 -1.621093,-1.15039 -0.734761,-0.45833 -0.530052,-1.7832 -6.013672,-1.7832 -2.751506,0 -2.714635,0.3352 -3.146485,0.46094 -0.431849,0.12573 -0.695094,0.22094 -0.955078,0.31445 -0.519968,0.18703 -0.976717,0.36776 -1.505859,0.58399 -1.058285,0.43244 -2.350319,0.98936 -3.888672,1.66796 -3.076705,1.35721 -7.092189,3.18789 -11.396484,5.20508 l -12.195313,5.7168 c -11.621606,-6.95641 -24.242212,-12.14153 -37.398437,-15.36133 -0.158535,-0.53751 -0.264213,-0.96087 -0.44336,-1.54492 -1.089653,-3.55244 -2.549402,-7.93908 -4.169922,-12.47266 a 10.619681,10.619681 0 0 0 -0.002,0 l -5.708984,-15.9707 a 10.619681,10.619681 0 0 0 -10.246094,-7.04102 z"
         transform="translate(-240,-75.714286)" />
      <path
         style="color:#000000;clip-rule:nonzero;display:inline;overflow:visible;visibility:visible;opacity:1;isolation:auto;mix-blend-mode:normal;color-interpolation:sRGB;color-interpolation-filters:linearRGB;solid-color:#000000;solid-opacity:1;fill:#ffffff;fill-opacity:1;fill-rule:nonzero;stroke:none;stroke-width:1;stroke-linecap:butt;stroke-linejoin:miter;stroke-miterlimit:4;stroke-dasharray:none;stroke-dashoffset:0;stroke-opacity:1;marker:none;color-rendering:auto;image-rendering:auto;shape-rendering:auto;text-rendering:auto;enable-background:accumulate"
         d="m -298.14258,282.64118 -12.08789,0.2832 -12.08789,0.28321 -5.90039,16.44921 -5.89844,16.44922 0.3711,1.8418 a 124.70052,124.70052 0 0 0 -46.75,19.63086 c -3.61317,-3.71824 -8.1749,-5.57275 -22.19922,-12.05859 l -10.41016,-4.8125 -8.45703,8.52343 -8.45703,8.52344 7.31641,15.6582 7.31835,15.65625 2.10157,1.43164 a 124.70052,124.70052 0 0 0 -19.14844,46.67969 c -0.4193,-0.0491 -0.76299,-0.0807 -0.9707,-0.084 -1.50139,-0.0239 -9.81035,2.51714 -18.46485,5.64843 l -15.73633,5.69336 0.28321,12.14063 0.2832,12.14062 16.35352,5.88282 16.35351,5.88086 2.07227,-0.41797 a 124.70052,124.70052 0 0 0 19.20117,46.12695 l -1.83008,1.19531 -7.69922,16.15235 -7.69922,16.15429 8.44336,8.44336 8.44532,8.44532 16.11132,-7.5625 16.10938,-7.56446 1.30664,-1.97851 a 124.70052,124.70052 0 0 0 46.12305,19.13867 l -0.38868,1.92773 4.91993,13.88477 c 2.70585,7.63656 5.40699,15.13425 6.00195,16.66211 l 1.08203,2.77929 12.01953,0 12.02149,0 5.68164,-15.70507 c 3.12532,-8.638 5.66257,-16.93415 5.63867,-18.43555 -0.003,-0.21469 -0.0395,-0.57942 -0.0918,-1.01953 a 124.70052,124.70052 0 0 0 46.61719,-19.19922 l 1.5,2.20117 15.6582,7.31641 15.65821,7.31836 8.52343,-8.45899 8.52344,-8.45703 -4.81445,-10.4082 c -6.45466,-13.95687 -8.32329,-18.54137 -12.00586,-22.14649 a 124.70052,124.70052 0 0 0 19.60156,-46.79882 l 1.9375,0.39062 16.39063,-5.91406 16.39062,-5.91602 0.2832,-12.08398 0.28125,-12.08399 -15.96875,-5.70898 c -8.78338,-3.13962 -17.0924,-5.68796 -18.46484,-5.66406 -0.16303,0.003 -0.42478,0.0252 -0.74805,0.0625 a 124.70052,124.70052 0 0 0 -19.24023,-46.67578 l 1.44336,-0.96094 7.27734,-15.37891 c 4.00289,-8.45797 7.27368,-15.82194 7.26758,-16.36523 -0.0141,-1.28362 -15.32268,-16.69141 -16.58398,-16.69141 -0.52946,0 -7.90385,3.25306 -16.38672,7.22852 l -15.42188,7.22851 -0.96289,1.44531 a 124.70052,124.70052 0 0 0 -46.72461,-19.20117 c 0.034,-0.30051 0.0579,-0.55597 0.0606,-0.71093 0.0239,-1.37244 -2.52445,-9.68146 -5.66406,-18.46485 l -5.70899,-15.9707 z"
         id="path4286"
         inkscape:connector-curvature="0" />
    </g>
  </g>
</svg>
