<?xml version="1.0" encoding="UTF-8" standalone="no"?>
<!-- Created with Inkscape (http://www.inkscape.org/) -->

<svg
   xmlns:dc="http://purl.org/dc/elements/1.1/"
   xmlns:cc="http://creativecommons.org/ns#"
   xmlns:rdf="http://www.w3.org/1999/02/22-rdf-syntax-ns#"
   xmlns:svg="http://www.w3.org/2000/svg"
   xmlns="http://www.w3.org/2000/svg"
   xmlns:sodipodi="http://sodipodi.sourceforge.net/DTD/sodipodi-0.dtd"
   xmlns:inkscape="http://www.inkscape.org/namespaces/inkscape"
   width="256"
   height="256"
   id="svg2"
   version="1.1"
   inkscape:version="0.48.5 r"
   sodipodi:docname="illvelo-work.svg"
   inkscape:export-xdpi="90"
   inkscape:export-ydpi="90">
  <title
     id="title5346">イルベロ素材</title>
  <defs
     id="defs4" />
  <sodipodi:namedview
     id="base"
     pagecolor="#ffffff"
     bordercolor="#666666"
     borderopacity="1.0"
     inkscape:pageopacity="0.0"
     inkscape:pageshadow="2"
     inkscape:zoom="1.87"
     inkscape:cx="127.5"
     inkscape:cy="120.62582"
     inkscape:document-units="px"
     inkscape:current-layer="layer1"
     showgrid="true"
     inkscape:window-width="1366"
     inkscape:window-height="697"
     inkscape:window-x="-4"
     inkscape:window-y="48"
     inkscape:window-maximized="1"
     inkscape:snap-bbox="true">
    <inkscape:grid
       type="xygrid"
       id="grid3083"
       empspacing="5"
       visible="true"
       enabled="true"
       snapvisiblegridlinesonly="true" />
  </sodipodi:namedview>
  <metadata
     id="metadata7">
    <rdf:RDF>
      <cc:Work
         rdf:about="">
        <dc:format>image/svg+xml</dc:format>
        <dc:type
           rdf:resource="http://purl.org/dc/dcmitype/StillImage" />
        <dc:title>イルベロ素材</dc:title>
        <cc:license
           rdf:resource="" />
        <dc:creator>
          <cc:Agent>
            <dc:title>プレハブ小屋</dc:title>
          </cc:Agent>
        </dc:creator>
        <dc:publisher>
          <cc:Agent>
            <dc:title>プレハブ小屋</dc:title>
          </cc:Agent>
        </dc:publisher>
        <dc:language>ja-JP</dc:language>
      </cc:Work>
    </rdf:RDF>
  </metadata>
  <g
     inkscape:label="レイヤー 1"
     inkscape:groupmode="layer"
     id="layer1"
     transform="translate(0,-796.36217)">
    <g
       id="g3794">
      <path
         inkscape:connector-curvature="0"
         id="path3788"
         d="m 55.483637,804.3712 c -28.75097,0 -52.059377,23.3084 -52.059377,52.05937 0,22.54521 14.299723,41.77247 34.349558,49.00965 -6.873439,13.45202 -10.754301,28.69312 -10.754301,44.83634 0,54.49314 44.168215,98.66134 98.661343,98.66134 54.49314,0 98.66135,-44.1682 98.66135,-98.66134 0,-15.73905 -3.71824,-30.6179 -10.27276,-43.81976 21.67498,-6.29219 37.50629,-26.32185 37.50629,-50.02623 0,-28.75097 -23.30839,-52.05937 -52.05938,-52.05937 -27.96014,0 -50.71859,22.04943 -51.95237,49.7052 -7.03869,-1.59385 -14.36238,-2.46118 -21.88313,-2.46118 -6.25111,0 -12.36989,0.60059 -18.29836,1.71212 C 105.77148,826.02646 83.18889,804.3712 55.483637,804.3712 z"
         style="color:#000000;fill:#ff0066;fill-opacity:1;fill-rule:nonzero;stroke:#000000;stroke-width:6.84850978999999960;stroke-linecap:round;stroke-linejoin:round;stroke-miterlimit:4;stroke-opacity:1;stroke-dasharray:none;stroke-dashoffset:0;marker:none;visibility:visible;display:inline;overflow:visible" />
      <path
         inkscape:connector-curvature="0"
         id="path3790"
         d="m 203.33526,950.57463 c 0,41.38119 -33.95265,74.92727 -75.83526,74.92727 -41.882645,0 -75.835281,-33.54608 -75.835281,-74.92727 0,-41.38118 33.952636,-74.92727 75.835281,-74.92727 41.88266,0 75.83526,33.54609 75.83526,74.92727 z"
         style="color:#000000;fill:#ffaacc;fill-opacity:1;fill-rule:nonzero;stroke:#000000;stroke-width:6.51012277999999970;stroke-linecap:round;stroke-linejoin:round;stroke-miterlimit:4;stroke-opacity:1;stroke-dashoffset:0;marker:none;visibility:visible;display:inline;overflow:visible" />
      <path
         inkscape:connector-curvature="0"
         id="path3792"
         d="m 126.28696,947.24534 0,22.39717"
         style="fill:none;stroke:#000000;stroke-width:6.84850978999999960;stroke-linecap:round;stroke-linejoin:round;stroke-miterlimit:4;stroke-opacity:1;stroke-dasharray:none" />
      <path
         inkscape:connector-curvature="0"
         sodipodi:nodetypes="csccc"
         id="path3794"
         d="m 74.808608,972.64373 c 9.407644,14.07417 26.060222,34.86817 51.476942,35.76567 21.48458,0.7586 44.2096,-13.71018 57.53305,-35.16959 -16.3515,11.9219 -39.88447,12.87691 -55.71735,13.07712 -16.61678,0.21006 -46.261225,-4.57619 -53.292642,-13.6732 z"
         style="fill:#ffffff;fill-opacity:1;stroke:#000000;stroke-width:6.79765987000000040;stroke-linecap:round;stroke-linejoin:round;stroke-miterlimit:4;stroke-opacity:1;stroke-dasharray:none" />
      <path
         inkscape:connector-curvature="0"
         sodipodi:nodetypes="cc"
         id="path3796"
         d="m 148.05291,918.99284 c 14.4564,-12.48778 30.33888,-10.47365 47.26737,0.43322"
         style="fill:none;stroke:#000000;stroke-width:5.58612632999999990;stroke-linecap:round;stroke-linejoin:round;stroke-miterlimit:4;stroke-opacity:1;stroke-dasharray:none" />
      <path
         inkscape:connector-curvature="0"
         sodipodi:nodetypes="cc"
         id="path3798"
         d="M 99.918465,916.47966 C 87.153801,904.49008 67.99708,912.02709 60.040156,919.66749"
         style="fill:none;stroke:#000000;stroke-width:5.10588979999999990;stroke-linecap:round;stroke-linejoin:round;stroke-miterlimit:4;stroke-opacity:1;stroke-dasharray:none" />
      <g
         style="stroke-linecap:round;stroke-linejoin:round"
         transform="matrix(1.5654121,0,0,1.3645648,-677.75686,377.29568)"
         id="g3800">
        <path
           inkscape:connector-curvature="0"
           style="color:#000000;fill:#ffffff;fill-opacity:1;fill-rule:nonzero;stroke:#000000;stroke-width:3.87095761000000000;stroke-linecap:round;stroke-linejoin:round;stroke-miterlimit:4;stroke-opacity:1;stroke-dashoffset:0;marker:none;visibility:visible;display:inline;overflow:visible"
           d="m 545.51517,402.83437 c -6.18372,0 -11.38084,2.33249 -13.04476,5.53695 1.66392,3.20446 6.86104,5.53695 13.04476,5.53695 6.18368,0 11.42097,-2.33249 13.08488,-5.53695 -1.66391,-3.20446 -6.9012,-5.53695 -13.08488,-5.53695 z"
           id="path3802" />
        <path
           sodipodi:type="arc"
           style="color:#000000;fill:#000000;fill-opacity:1;fill-rule:nonzero;stroke:#000000;stroke-width:4;stroke-linecap:round;stroke-linejoin:round;stroke-miterlimit:4;stroke-opacity:1;stroke-dasharray:none;stroke-dashoffset:0;marker:none;visibility:visible;display:inline;overflow:visible"
           id="path3804"
           sodipodi:cx="544.47223"
           sodipodi:cy="408.1879"
           sodipodi:rx="2.8284271"
           sodipodi:ry="2.8284271"
           d="m 547.30066,408.1879 c 0,1.56209 -1.26633,2.82842 -2.82843,2.82842 -1.5621,0 -2.82843,-1.26633 -2.82843,-2.82842 0,-1.5621 1.26633,-2.82843 2.82843,-2.82843 1.5621,0 2.82843,1.26633 2.82843,2.82843 z"
           transform="translate(1.063001,0.18342327)" />
      </g>
      <g
         style="stroke-linecap:round;stroke-linejoin:round"
         transform="matrix(1.4972149,0,0,1.4209956,-648.8148,355.55845)"
         id="g3806">
        <path
           inkscape:connector-curvature="0"
           id="path3808"
           d="m 487.35487,402.15835 c -6.42002,0 -11.81574,2.3194 -13.54323,5.50586 1.72749,3.18646 7.12321,5.50586 13.54323,5.50586 6.41998,0 11.85739,-2.3194 13.58489,-5.50586 -1.7275,-3.18646 -7.16491,-5.50586 -13.58489,-5.50586 z"
           style="color:#000000;fill:#ffffff;fill-opacity:1;fill-rule:nonzero;stroke:#000000;stroke-width:3.93313551000000010;stroke-linecap:round;stroke-linejoin:round;stroke-miterlimit:4;stroke-opacity:1;stroke-dashoffset:0;marker:none;visibility:visible;display:inline;overflow:visible" />
        <path
           d="m 547.30066,408.1879 c 0,1.56209 -1.26633,2.82842 -2.82843,2.82842 -1.5621,0 -2.82843,-1.26633 -2.82843,-2.82842 0,-1.5621 1.26633,-2.82843 2.82843,-2.82843 1.5621,0 2.82843,1.26633 2.82843,2.82843 z"
           sodipodi:ry="2.8284271"
           sodipodi:rx="2.8284271"
           sodipodi:cy="408.1879"
           sodipodi:cx="544.47223"
           id="path3810"
           style="color:#000000;fill:#000000;fill-opacity:1;fill-rule:nonzero;stroke:#000000;stroke-width:4;stroke-linecap:round;stroke-linejoin:round;stroke-miterlimit:4;stroke-opacity:1;stroke-dasharray:none;stroke-dashoffset:0;marker:none;visibility:visible;display:inline;overflow:visible"
           sodipodi:type="arc"
           transform="translate(-57.096529,-0.52368673)" />
      </g>
    </g>
  </g>
</svg>
