<?xml version="1.0" encoding="UTF-8" standalone="no"?>
<!-- Created with Inkscape (http://www.inkscape.org/) -->

<svg
   xmlns:osb="http://www.openswatchbook.org/uri/2009/osb"
   xmlns:dc="http://purl.org/dc/elements/1.1/"
   xmlns:cc="http://creativecommons.org/ns#"
   xmlns:rdf="http://www.w3.org/1999/02/22-rdf-syntax-ns#"
   xmlns:svg="http://www.w3.org/2000/svg"
   xmlns="http://www.w3.org/2000/svg"
   xmlns:xlink="http://www.w3.org/1999/xlink"
   xmlns:sodipodi="http://sodipodi.sourceforge.net/DTD/sodipodi-0.dtd"
   xmlns:inkscape="http://www.inkscape.org/namespaces/inkscape"
   width="701"
   height="625"
   id="svg2"
   version="1.1"
   inkscape:version="0.91 r13725"
   sodipodi:docname="mattari-wallpaper.svg"
   inkscape:export-xdpi="90"
   inkscape:export-ydpi="90"
   enable-background="new">
  <defs
     id="defs4">
    <linearGradient
       inkscape:collect="always"
       id="linearGradient4232">
      <stop
         style="stop-color:#000000;stop-opacity:1"
         offset="0"
         id="stop4234" />
      <stop
         id="stop4236"
         offset="0.50071329"
         style="stop-color:#404040;stop-opacity:1" />
      <stop
         style="stop-color:#000000;stop-opacity:1"
         offset="1"
         id="stop4238" />
    </linearGradient>
    <linearGradient
       id="linearGradient4372"
       inkscape:collect="always">
      <stop
         id="stop4374"
         offset="0"
         style="stop-color:#000040;stop-opacity:1" />
      <stop
         style="stop-color:#0000b0;stop-opacity:0.8"
         offset="0.50071329"
         id="stop4376" />
      <stop
         id="stop4378"
         offset="1"
         style="stop-color:#000040;stop-opacity:1" />
    </linearGradient>
    <linearGradient
       inkscape:collect="always"
       id="linearGradient4312">
      <stop
         style="stop-color:#e4c844;stop-opacity:1"
         offset="0"
         id="stop4314" />
      <stop
         id="stop4316"
         offset="0.37757808"
         style="stop-color:#a06400;stop-opacity:1" />
      <stop
         style="stop-color:#e0c038;stop-opacity:1"
         offset="0.37757808"
         id="stop4318" />
      <stop
         style="stop-color:#ffffff;stop-opacity:1"
         offset="1"
         id="stop4320" />
    </linearGradient>
    <linearGradient
       id="linearGradient3757"
       osb:paint="gradient">
      <stop
         style="stop-color:#e9e9e9;stop-opacity:1;"
         offset="0"
         id="stop3759" />
      <stop
         style="stop-color:#000000;stop-opacity:1;"
         offset="1"
         id="stop3761" />
    </linearGradient>
    <filter
       id="filter6025"
       inkscape:menu-tooltip="Same as HSL Bumps but with transparent highlights"
       inkscape:menu="Image effects, transparent"
       inkscape:label="HSL Bumps alpha"
       color-interpolation-filters="sRGB">
      <feGaussianBlur
         id="feGaussianBlur6027"
         result="result0"
         in="SourceGraphic"
         stdDeviation="0.5" />
      <feColorMatrix
         id="feColorMatrix6029"
         values="1 0 0 -1 0 1 0 1 -1 0 1 0 0 -1 0 -0.8 -1 0 4.4 -2.9 "
         in="result0"
         result="fbSourceGraphicAlpha" />
      <feGaussianBlur
         id="feGaussianBlur6031"
         stdDeviation="0.7"
         in="fbSourceGraphicAlpha"
         result="result0" />
      <feSpecularLighting
         id="feSpecularLighting6033"
         in="result0"
         result="result1"
         lighting-color="rgb(255,255,255)"
         surfaceScale="-2"
         specularConstant="1.5"
         specularExponent="10">
        <feDistantLight
           id="feDistantLight6035"
           elevation="50"
           azimuth="235" />
      </feSpecularLighting>
      <feComposite
         id="feComposite6037"
         in2="result1"
         result="result4"
         operator="in"
         in="SourceGraphic" />
      <feComposite
         id="feComposite6039"
         in2="result4"
         operator="arithmetic"
         k2="1"
         k3="1" />
    </filter>
    <linearGradient
       id="linearGradient3757-0"
       osb:paint="gradient">
      <stop
         style="stop-color:#e9e9e9;stop-opacity:1;"
         offset="0"
         id="stop3759-1" />
      <stop
         style="stop-color:#000000;stop-opacity:1;"
         offset="1"
         id="stop3761-3" />
    </linearGradient>
    <linearGradient
       inkscape:collect="always"
       xlink:href="#linearGradient4312"
       id="linearGradient4221"
       x1="530.23541"
       y1="618.1933"
       x2="530.23541"
       y2="599.96979"
       gradientUnits="userSpaceOnUse"
       gradientTransform="translate(112.81146,3.0614624)" />
    <linearGradient
       inkscape:collect="always"
       xlink:href="#linearGradient4312"
       id="linearGradient4231"
       gradientUnits="userSpaceOnUse"
       x1="530.23541"
       y1="618.1933"
       x2="530.23541"
       y2="599.96979"
       gradientTransform="matrix(1.7073224,0,0,1.7073224,-382.74978,-454.11145)" />
    <linearGradient
       inkscape:collect="always"
       xlink:href="#linearGradient4372"
       id="linearGradient4241"
       x1="0"
       y1="312.5"
       x2="701"
       y2="312.5"
       gradientUnits="userSpaceOnUse" />
    <linearGradient
       inkscape:collect="always"
       xlink:href="#linearGradient4232"
       id="linearGradient4247"
       gradientUnits="userSpaceOnUse"
       x1="0"
       y1="625"
       x2="0"
       y2="0" />
  </defs>
  <sodipodi:namedview
     id="base"
     pagecolor="#ffffff"
     bordercolor="#666666"
     borderopacity="1.0"
     inkscape:pageopacity="0.0"
     inkscape:pageshadow="2"
     inkscape:zoom="0.70710678"
     inkscape:cx="255.46352"
     inkscape:cy="314.67126"
     inkscape:document-units="px"
     inkscape:current-layer="layer-table-color"
     showgrid="false"
     inkscape:window-width="1366"
     inkscape:window-height="684"
     inkscape:window-x="-8"
     inkscape:window-y="53"
     inkscape:window-maximized="1"
     inkscape:snap-grids="false"
     inkscape:snap-bbox="true"
     inkscape:object-paths="false"
     inkscape:snap-page="true"
     inkscape:bbox-nodes="true"
     inkscape:object-nodes="true">
    <inkscape:grid
       type="xygrid"
       id="grid2985"
       empspacing="5"
       visible="true"
       enabled="true"
       snapvisiblegridlinesonly="true" />
  </sodipodi:namedview>
  <metadata
     id="metadata7">
    <rdf:RDF>
      <cc:Work
         rdf:about="">
        <dc:format>image/svg+xml</dc:format>
        <dc:type
           rdf:resource="http://purl.org/dc/dcmitype/StillImage" />
        <dc:title />
      </cc:Work>
    </rdf:RDF>
  </metadata>
  <g
     inkscape:groupmode="layer"
     id="layer-table-color"
     inkscape:label="table-color"
     style="display:inline">
    <rect
       style="color:#000000;display:inline;overflow:visible;visibility:visible;opacity:0.5;fill:url(#linearGradient4241);fill-opacity:1;fill-rule:nonzero;stroke:none;stroke-width:1px;marker:none;enable-background:accumulate"
       id="rect9624"
       width="701"
       height="625"
       x="0"
       y="0" />
    <rect
       y="0"
       x="0"
       height="625"
       width="701"
       id="rect4245"
       style="color:#000000;display:inline;overflow:visible;visibility:visible;fill:url(#linearGradient4247);fill-opacity:1;fill-rule:nonzero;stroke:none;stroke-width:1px;marker:none;enable-background:accumulate" />
  </g>
  <g
     inkscape:groupmode="layer"
     id="layer1"
     inkscape:label="rose"
     style="opacity:1">
    <path
       sodipodi:nodetypes="zcccccccccccccccccccccczz"
       inkscape:connector-curvature="0"
       id="path3397"
       d="m 308.90229,604.38727 c -29.98432,-6.92791 -53.14999,-20.25398 -79.95357,-30.16698 -29.13832,-6.56371 -44.64091,-30.47984 -67.03166,-46.25702 -21.20759,-18.7667 -57.53539,-32.91539 -59.24182,-64.25334 -0.92673,-21.726 -0.94394,-43.47595 -1.34407,-65.21504 -13.48791,-20.78484 -56.90344,-12.82805 -53.75487,-45.3093 1.56932,-17.12668 -1.15058,-35.46337 2.83633,-52.03422 11.10926,-21.98283 14.65663,-46.62583 27.27527,-68.04615 19.87152,-22.61436 36.66608,-47.19612 42.13753,-76.71328 17.54163,-29.05129 46.45707,-48.40837 67.48909,-74.60628 16.22668,-8.270093 27.17037,-30.754556 46.43505,-30.378222 26.90484,0.470955 54.49039,-2.75768 80.80365,2.114154 22.54979,-6.741326 42.58148,-49.140988 66.49388,-33.559737 20.09765,27.004144 53.18541,29.25489 81.72444,39.735135 29.2332,10.814265 51.98188,32.49669 75.5974,52.20545 18.76551,18.92056 36.34307,39.6561 52.58656,60.25627 23.10389,22.24396 33.90839,52.1121 42.93462,82.04069 9.44841,13.92735 3.36486,32.00073 5.3809,47.73562 -3.18203,25.99666 -19.31738,47.62959 -30.63372,70.66202 -25.30993,20.93861 -25.58223,50.43113 -23.94377,81.0228 1.06919,20.87389 -7.76523,52.92978 23.59324,48.95636 14.29139,30.81815 -29.84788,37.39761 -43.14028,55.404 -27.83848,12.3438 -50.49649,35.12285 -83.10341,35.2521 -32.44928,12.2575 -72.29319,11.99455 -101.50505,13.21746 -29.21186,1.22291 -41.65142,4.86542 -71.63574,-2.06249 z"
       style="fill:#ff1493;fill-opacity:1" />
    <path
       style="fill:#000000;fill-opacity:0.87843138"
       d="m 308.90229,604.38727 c -29.98432,-6.92791 -53.14999,-20.25398 -79.95357,-30.16698 -29.13832,-6.56371 -44.64091,-30.47984 -67.03166,-46.25702 -21.20759,-18.7667 -57.53539,-32.91539 -59.24182,-64.25334 -0.92673,-21.726 -0.94394,-43.47595 -1.34407,-65.21504 -13.487912,-20.78484 -56.903445,-12.82805 -53.754875,-45.3093 1.569322,-17.12668 -1.15058,-35.46337 2.836336,-52.03422 11.109258,-21.98283 14.656625,-46.62583 27.275266,-68.04615 19.871521,-22.61436 36.666083,-47.19612 42.137533,-76.71328 17.54163,-29.05129 46.45707,-48.40837 67.48909,-74.60628 16.22668,-8.270093 27.17037,-30.754556 46.43505,-30.378222 26.90484,0.470955 54.49039,-2.75768 80.80365,2.114154 22.54979,-6.741326 42.58148,-49.140988 66.49388,-33.559737 20.09765,27.004144 53.18541,29.25489 81.72444,39.735135 29.2332,10.814265 51.98188,32.49669 75.5974,52.20545 18.76551,18.92056 36.34307,39.6561 52.58656,60.25627 23.10389,22.24396 33.90839,52.1121 42.93462,82.04069 9.44841,13.92735 3.36486,32.00073 5.3809,47.73562 -3.18203,25.99666 -19.31738,47.62959 -30.63372,70.66202 -25.30993,20.93861 -25.58223,50.43113 -23.94377,81.0228 1.06919,20.87389 -7.76523,52.92978 23.59324,48.95636 14.29139,30.81815 -29.84788,37.39761 -43.14028,55.404 -27.83848,12.3438 -50.49649,35.12285 -83.10341,35.2521 -32.44928,12.2575 -72.29319,11.99455 -101.50505,13.21746 -29.21186,1.22291 -41.65142,4.86542 -71.63574,-2.06249 z m 120.15387,-24.01092 c 17.63013,-21.04607 58.83281,-1.44232 67.96369,-22.84698 -24.79915,-11.58148 -54.46804,-8.05598 -81.38373,-11.62231 -24.91681,-13.17243 -63.25363,21.06597 -32.29956,37.94212 15.21432,-0.96314 30.84068,0.0624 45.7196,-3.47283 z m -87.00812,-8.49169 c -2.70519,-31.30852 30.63773,-37.01893 54.09178,-42.66019 32.80683,-8.03044 68.48844,11.91657 100.18955,-4.46307 18.4042,-17.02351 39.25735,-32.56474 48.0712,-57.14152 -3.46729,-8.6185 -2.56277,-38.42006 -12.33444,-30.81239 -15.50589,19.79106 -38.9319,28.59623 -59.50468,41.30099 -28.04216,10.68103 -53.97191,27.69931 -83.76727,33.02759 -28.96457,5.85653 -57.08712,-4.72095 -80.56895,-20.58935 -18.52898,-11.51903 -59.10192,-42.16831 -68.77696,-7.46683 -4.43187,26.81938 19.25065,56.52591 44.33543,66.2516 28.03621,-15.19113 40.62415,31.43782 58.26434,22.55317 z m -92.96326,-6.45647 c 3.39038,-19.42747 -28.92666,-32.32995 -41.67604,-45.18751 -15.93216,14.84269 19.867,48.67482 38.79075,47.70053 z m 271.47606,-8.52854 c 14.44384,-10.214 53.50516,-12.90459 50.23226,-32.10954 -5.08491,-7.7827 2.26585,-38.07647 -17.06909,-22.75333 -4.14034,30.94902 -43.26627,34.21161 -53.71491,56.11303 5.11253,7.96842 14.10148,0.0278 20.55174,-1.25016 z M 187.96022,494.35009 c 5.18437,-23.62929 54.1248,-42.75032 13.85184,-59.91824 -23.72439,-18.73014 -47.90246,-37.56178 -65.69047,-62.53612 -19.27951,-28.39783 -9.448,-66.84717 -2.98039,-98.12073 1.96006,-14.13494 23.09082,-44.35111 10.62488,-50.45089 -25.84413,11.15669 -30.99673,41.94174 -39.28472,65.81221 -6.344588,22.21049 -25.049854,60.80568 7.54904,68.99654 24.79253,24.51341 20.25368,61.34753 26.33654,92.68843 9.18211,16.39992 28.55137,48.55448 49.59328,43.5288 z m 202.45172,-22.16991 c 25.61333,-15.09756 54.15933,-25.8874 77.28201,-44.93065 37.86929,-35.10873 67.2835,-85.32685 60.97418,-138.60385 -2.18826,-46.98726 -30.28717,-88.73063 -64.15505,-119.61243 -18.08617,-1.67939 10.97327,43.66662 -2.12476,61.04237 -12.37856,30.83632 -15.21027,63.37723 -12.41557,96.52067 4.28685,31.84059 -10.49091,58.46241 -32.05957,80.4123 -21.38066,17.98321 -48.93336,31.39035 -77.42424,30.54097 -26.52281,2.25322 -49.4918,-18.21649 -64.51958,-37.97994 -3.89414,9.81737 5.20442,44.19943 20.73879,51.94231 24.10881,12.8595 48.51351,28.75371 77.34544,22.51864 5.46768,-0.43035 10.97489,-0.73744 16.35835,-1.85039 z M 240.49759,403.39709 c 3.12091,-25.58146 22.51714,-49.34098 4.97217,-75.54827 -2.67725,-17.3681 9.56787,-35.68146 23.57882,-45.90183 17.17046,-19.85151 9.14511,-51.38035 38.6301,-62.90112 36.97053,-10.18088 -21.05976,-31.38512 -35.74872,-29.7047 -28.10674,2.87806 -63.10129,9.52038 -77.69113,36.68042 -9.90674,34.33023 -36.16865,66.36371 -28.54016,103.8191 15.23052,33.35054 37.53923,63.72807 67.31073,85.50963 11.45028,4.47083 6.72977,-4.95286 7.48819,-11.95323 z m 128.08489,-10.52572 c 32.63564,-10.31746 4.88535,-33.34198 -17.42614,-23.15284 -21.47827,-1.12648 -46.30444,-10.50728 -57.60196,-29.59963 -4.34897,-9.2681 7.85559,-38.2746 -6.51337,-34.26982 -17.86316,20.37388 -14.45633,63.09882 15.75439,70.55164 22.01198,7.15761 39.11958,29.59627 65.78708,16.47065 z m 209.80378,-42.62809 c 16.96568,-23.70768 31.6103,-52.00564 26.65244,-82.03194 -12.96123,-24.81511 -11.96936,-55.6101 -30.75389,-77.86379 C 556.24874,167.6938 537.21716,145.27605 513.37415,128.54989 493.995,107.42972 466.3179,98.04269 438.59228,94.55318 416.85378,83.00696 369.79197,82.70339 377.51581,48.152284 361.47195,30.263372 334.72923,98.87906 370.19166,93.63271 c 28.2214,17.91091 55.73844,29.87478 89.77513,30.30381 32.76403,10.79868 57.50344,37.11429 81.2018,60.95576 16.54769,20.44207 30.16325,44.06592 31.0984,70.97419 11.42434,25.1145 11.27424,52.23225 -0.61522,77.21457 -1.50969,5.18888 -4.58662,29.8032 6.73449,17.16224 z m -195.87844,-7.21473 c 31.68422,-15.31727 -0.98721,-28.59425 -19.78947,-30.82354 -21.3483,-12.43674 -59.48809,7.08379 -29.04921,28.13638 8.96401,15.25459 36.40298,12.19614 48.83868,2.68716 z m 32.44641,-49.70844 c -0.58985,-26.23106 -27.16997,-46.93282 -47.65866,-60.14486 -11.30945,-11.09302 -51.90546,-7.84919 -44.57302,7.80305 35.64128,3.94591 70.10363,25.53561 84.32551,59.31186 5.36674,12.00915 7.17044,-2.06087 7.90617,-6.97005 z m -49.55977,4.82416 c 7.69506,-21.91227 -42.66674,-41.11834 -55.10778,-28.82316 11.42756,11.52541 37.14651,33.50683 55.10778,28.82316 z m 53.82327,-94.71878 c -11.20252,-27.26661 -28.29803,-54.07746 -52.67931,-71.23503 -24.29412,-15.10729 -54.39752,-19.04763 -81.09178,-8.03315 -20.34068,4.10421 -58.31719,20.23752 -58.42704,37.78122 29.63854,-8.00449 58.80554,-22.33821 90.40598,-13.61989 26.38975,10.28337 49.73029,25.74997 73.38194,41.04569 7.02512,0.96826 37.27562,44.90153 28.41021,14.06116 z M 160.89497,176.35632 c 21.62428,-18.79529 32.80896,-46.39029 58.68629,-60.78861 15.01867,-15.90308 46.57082,-19.49858 58.58046,-28.79062 -32.65059,-6.54422 -64.70204,12.54141 -86.35798,35.03073 -11.42968,18.17902 -37.88634,35.56948 -36.56943,57.4551 z"
       id="path3394"
       inkscape:connector-curvature="0"
       sodipodi:nodetypes="zcccccccccccccccccccccczzcccccccccccccccccccccccccccccccccccccccccccccccccccccccccccccccccccccccccccccccccccccccccccccccccc" />
  </g>
  <g
     inkscape:groupmode="layer"
     id="layer-detail"
     inkscape:label="detail"
     style="display:inline;"
     sodipodi:insensitive="true">
    <path
       style="fill:#2b0000;fill-opacity:1;stroke:none;stroke-width:1px;stroke-linecap:butt;stroke-linejoin:miter;stroke-opacity:1"
       d="m 440.07222,310.65898 c 0.24538,-0.0359 0.5057,-0.0189 0.74632,-0.0688 0.82445,-0.17107 1.61705,-0.43185 2.37466,-0.75677 0.7576,-0.32492 1.47472,-0.73091 2.14849,-1.19248 0.67378,-0.46157 1.30414,-0.97841 1.87711,-1.5594 0.57297,-0.581 1.08268,-1.22018 1.53787,-1.90339 0.4552,-0.68321 0.85559,-1.41037 1.17602,-2.17858 0.32044,-0.76821 0.57761,-1.5719 0.74632,-2.4079 0.16871,-0.83603 0.24878,-1.70483 0.24878,-2.59139 0,-0.88657 -0.0801,-1.75537 -0.24878,-2.59136 -0.16871,-0.836 -0.42588,-1.63969 -0.74632,-2.4079 -0.32043,-0.76821 -0.72082,-1.49537 -1.17602,-2.17858 -0.45519,-0.68321 -0.9649,-1.3224 -1.53787,-1.90339 -0.57297,-0.58099 -1.20333,-1.09783 -1.87711,-1.5594 -0.67377,-0.46157 -1.39089,-0.86756 -2.14849,-1.19248 -0.75761,-0.32493 -1.55021,-0.5857 -2.37466,-0.75677 -0.24062,-0.0499 -0.50094,-0.033 -0.74632,-0.0688 l 0,4.21956 0,13.20905 0,7.88874 z"
       id="path4119"
       inkscape:connector-curvature="0" />
    <path
       id="path3881"
       d="m 510,440 -70,-70 -62,0 -64,0 -64,0 -70,70 0,10 134,0 64,0 132,0 z"
       style="fill:none;stroke:#000000;stroke-width:1px;stroke-linecap:butt;stroke-linejoin:miter;stroke-opacity:0.25098039;filter:url(#filter6025)"
       inkscape:connector-curvature="0"
       sodipodi:nodetypes="ccccccccccc" />
    <use
       x="0"
       y="0"
       xlink:href="#path3881"
       id="use4302"
       transform="matrix(1,0,0,-1,0,596)"
       width="100%"
       height="100%" />
    <path
       id="path4466"
       style="color:#000000;clip-rule:nonzero;display:inline;overflow:visible;visibility:visible;opacity:1;isolation:auto;mix-blend-mode:normal;color-interpolation:sRGB;color-interpolation-filters:linearRGB;solid-color:#000000;solid-opacity:1;fill:none;fill-opacity:1;fill-rule:nonzero;stroke:#000000;stroke-width:1px;stroke-linecap:butt;stroke-linejoin:miter;stroke-miterlimit:4;stroke-dasharray:none;stroke-dashoffset:0;stroke-opacity:0.25098039;filter:url(#filter6025);color-rendering:auto;image-rendering:auto;shape-rendering:auto;text-rendering:auto;enable-background:accumulate"
       d="M 520.2504,440.00078 510,440 m 10.2504,-284 0,284.00078 M 440,370 l 0,-144 70,-70 10.2504,0"
       inkscape:connector-curvature="0" />
    <use
       x="0"
       y="0"
       xlink:href="#path4466"
       id="use4490"
       transform="matrix(-1,0,0,1,690,0)"
       width="100%"
       height="100%" />
  </g>
  <g
     inkscape:groupmode="layer"
     id="layer-text"
     inkscape:label="text"
     style="display:none"
     sodipodi:insensitive="true">
    <text
       sodipodi:linespacing="100%"
       id="text-version"
       y="619.28125"
       x="642.03125"
       style="font-style:normal;font-variant:normal;font-weight:normal;font-stretch:normal;font-size:56px;line-height:100%;font-family:'MS PMincho';-inkscape-font-specification:'MS PMincho';text-align:start;letter-spacing:0px;word-spacing:0px;writing-mode:lr-tb;text-anchor:start;fill:url(#linearGradient4221);fill-opacity:1;stroke:none;stroke-width:0.25;stroke-linecap:round;stroke-linejoin:round;stroke-miterlimit:4;stroke-dasharray:none;stroke-opacity:1"
       xml:space="preserve"
       inkscape:label="#text3013"><tspan
         style="font-weight:bold;font-size:20px;-inkscape-font-specification:'MS PMincho Bold';fill:url(#linearGradient4221);fill-opacity:1;stroke:none;stroke-width:0.25;stroke-linecap:round;stroke-linejoin:round;stroke-miterlimit:4;stroke-dasharray:none;stroke-opacity:1"
         y="619.28125"
         x="642.03125"
         id="tspan3015"
         sodipodi:role="line">{{ VERSION }}</tspan></text>
    <text
       inkscape:label="#text3013"
       xml:space="preserve"
       style="font-style:normal;font-variant:normal;font-weight:normal;font-stretch:normal;font-size:95.61005402px;line-height:100%;font-family:'MS PMincho';-inkscape-font-specification:'MS PMincho';text-align:start;letter-spacing:0px;word-spacing:0px;writing-mode:lr-tb;text-anchor:start;fill:url(#linearGradient4231);fill-opacity:1;stroke:none;stroke-width:0.25;stroke-linecap:round;stroke-linejoin:round;stroke-miterlimit:4;stroke-dasharray:none;stroke-opacity:1"
       x="520.79901"
       y="597.97437"
       id="text4227"
       sodipodi:linespacing="100%"><tspan
         sodipodi:role="line"
         id="tspan4229"
         x="520.79901"
         y="597.97437"
         style="font-weight:bold;font-size:34.14644623px;-inkscape-font-specification:'MS PMincho Bold';fill:url(#linearGradient4231);fill-opacity:1;stroke:none;stroke-width:0.25;stroke-linecap:round;stroke-linejoin:round;stroke-miterlimit:4;stroke-dasharray:none;stroke-opacity:1">まったり麻雀</tspan></text>
  </g>
</svg>
