<?xml version="1.0" encoding="UTF-8" standalone="no"?>
<!-- Created with Inkscape (http://www.inkscape.org/) -->

<svg
   width="720"
   height="1280"
   viewBox="0 0 720 1280"
   version="1.1"
   id="svg5"
   inkscape:version="1.2.2 (732a01da63, 2022-12-09)"
   sodipodi:docname="moe.svg"
   xmlns:inkscape="http://www.inkscape.org/namespaces/inkscape"
   xmlns:sodipodi="http://sodipodi.sourceforge.net/DTD/sodipodi-0.dtd"
   xmlns="http://www.w3.org/2000/svg"
   xmlns:svg="http://www.w3.org/2000/svg">
  <sodipodi:namedview
     id="namedview7"
     pagecolor="#ffffff"
     bordercolor="#000000"
     borderopacity="0.25"
     inkscape:showpageshadow="2"
     inkscape:pageopacity="0.0"
     inkscape:pagecheckerboard="0"
     inkscape:deskcolor="#d1d1d1"
     inkscape:document-units="mm"
     showgrid="true"
     showguides="true"
     inkscape:zoom="0.4489899"
     inkscape:cx="482.19347"
     inkscape:cy="468.83015"
     inkscape:window-width="1366"
     inkscape:window-height="684"
     inkscape:window-x="-8"
     inkscape:window-y="53"
     inkscape:window-maximized="1"
     inkscape:current-layer="layer1">
    <inkscape:grid
       type="xygrid"
       id="grid9" />
  </sodipodi:namedview>
  <defs
     id="defs2">
    <inkscape:path-effect
       effect="powerclip"
       id="path-effect1108"
       is_visible="true"
       lpeversion="1"
       inverse="true"
       flatten="false"
       hide_clip="false"
       message="クリップをパスに変換した後に残らない場合には&lt;b&gt;フィル/ストローク&lt;/b&gt;ダイアログのフィルルールで evenodd を使用します。" />
    <filter
       style="color-interpolation-filters:sRGB;"
       inkscape:label="Blur"
       id="filter1557"
       x="-0.0075706048"
       y="-0.069798511"
       width="1.0151412"
       height="1.139597">
      <feGaussianBlur
         stdDeviation="2 2"
         result="blur"
         id="feGaussianBlur1555" />
    </filter>
    <filter
       height="1.3454339"
       width="1.3602822"
       y="-0.17340463"
       x="-0.1825404"
       style="color-interpolation-filters:sRGB;"
       inkscape:label="Blur"
       id="filter502">
      <feGaussianBlur
         stdDeviation="16 16"
         result="blur"
         id="feGaussianBlur496" />
      <feColorMatrix
         values="1 0 0 0 0 0 1 0 0 0 0 0 1 0 0 0 0 0 50 0 "
         result="colormatrix"
         id="feColorMatrix498" />
      <feComposite
         in="colormatrix"
         in2="SourceGraphic"
         operator="in"
         id="feComposite500"
         result="fbSourceGraphic" />
      <feColorMatrix
         result="fbSourceGraphicAlpha"
         in="fbSourceGraphic"
         values="0 0 0 -1 0 0 0 0 -1 0 0 0 0 -1 0 0 0 0 1 0"
         id="feColorMatrix512" />
      <feGaussianBlur
         id="feGaussianBlur514"
         stdDeviation="16 16"
         result="blur"
         in="fbSourceGraphic" />
    </filter>
    <filter
       id="mask-powermask-path-effect542_inverse"
       inkscape:label="filtermask-powermask-path-effect542"
       style="color-interpolation-filters:sRGB"
       height="100"
       width="100"
       x="-50"
       y="-50">
      <feColorMatrix
         id="mask-powermask-path-effect542_primitive1"
         values="1"
         type="saturate"
         result="fbSourceGraphic" />
      <feColorMatrix
         id="mask-powermask-path-effect542_primitive2"
         values="-1 0 0 0 1 0 -1 0 0 1 0 0 -1 0 1 0 0 0 1 0 "
         in="fbSourceGraphic" />
    </filter>
    <clipPath
       clipPathUnits="userSpaceOnUse"
       id="clipPath1102">
      <g
         aria-label="萌"
         id="g1106"
         style="font-weight:600;font-size:512.84px;font-family:'Yu Mincho';-inkscape-font-specification:'Yu Mincho Semi-Bold';display:none;fill:#ffffff;stroke:#ff1493;stroke-width:9.92367"
         clip-path="none">
        <path
           d="m 401.44288,728.39479 q -5.0082,25.79225 -15.02461,48.57957 -14.52379,33.80538 -43.07054,59.0968 -22.78733,20.03282 -62.35214,41.31768 -0.50082,0.25041 -0.75123,0.25041 -4.00656,0 -4.00656,-3.75615 0,-0.50082 0.50082,-1.00164 49.58121,-41.31768 69.61403,-94.90545 18.53035,-46.82671 18.53035,-161.26415 0,-64.85624 -3.50574,-104.17063 36.05906,17.52871 53.33736,27.79552 h 93.403 q 19.03117,-21.53527 24.54019,-21.53527 6.00985,0 27.29471,17.02789 11.26846,9.01477 11.26846,14.27338 0,5.50903 -13.02133,15.27502 v 25.29143 l 1.00164,234.63433 q 0,17.2783 -3.00492,24.7906 -2.75451,6.51067 -10.26682,12.77092 -15.02461,13.27174 -44.82342,13.27174 -5.50902,0 -7.01148,-6.76107 -3.75616,-18.78077 -14.02297,-26.29307 -10.26682,-7.76272 -39.81522,-16.02625 -2.00328,-0.50082 -2.00328,-3.50574 0,-2.75452 2.00328,-2.75452 41.31768,3.00493 63.10336,3.00493 8.76436,0 8.76436,-8.01313 V 728.39479 Z M 512.12418,626.97867 V 552.10603 H 410.70806 v 18.53036 q 0,38.81357 -0.75123,56.34228 z m -102.16735,11.76928 q -1.75287,48.07875 -6.51066,77.87756 h 108.67801 v -77.87756 z m 29.79881,-167.27399 q 0.50082,15.52543 0.50082,30.29963 0,18.53035 -26.04266,18.53035 -20.53363,0 -20.53363,-15.52543 l 0.50082,-33.30455 h -88.89561 v 28.79717 q 0,19.53199 -26.54348,19.53199 -20.03281,0 -20.03281,-16.52707 0,-0.75123 0.75123,-11.26846 0.50082,-10.26681 0.75123,-20.53363 h -91.65012 q -13.02133,0 -32.80374,3.00492 l -5.75943,-18.78076 q 20.53363,4.00656 38.56317,4.00656 h 91.65012 q 0,-37.56153 -2.5041,-56.84311 44.82342,3.50574 53.83818,5.75944 8.26354,2.00328 8.26354,7.01148 0,6.26025 -14.52379,12.77092 v 31.30127 h 88.89561 q 0,-41.56809 -2.75451,-57.34393 48.07875,5.0082 56.34229,7.2619 6.76107,1.75287 6.76107,7.01148 0,5.75943 -14.7742,11.76928 v 31.30127 h 65.60746 q 28.04594,-33.30455 34.3062,-33.30455 5.0082,0 35.05742,23.03773 15.27502,12.52051 15.27502,17.02789 0,5.00821 -6.76107,5.00821 z M 269.47673,768.96124 h -71.86772 v 23.53856 q 0,17.52871 -27.54512,17.52871 -19.03118,0 -19.03118,-15.27502 L 153.036,638.24713 q 0,-66.10828 -2.50411,-113.43581 26.54348,10.26682 50.58286,23.03774 h 64.35541 q 21.28487,-23.03774 26.54348,-23.03774 5.50902,0 25.04102,15.77584 10.26681,8.76436 10.26681,14.02297 0,5.25862 -13.27173,15.27502 v 34.05579 q 0,95.65668 3.00492,171.53096 0,18.02954 -28.54676,18.02954 -19.03117,0 -19.03117,-14.7742 z m 0,-11.76928 v -99.41284 h -71.86772 v 99.41284 z m 0,-111.18211 v -86.39151 h -71.86772 v 86.39151 z"
           style="display:inline;fill:#ffffff;fill-opacity:0;stroke:none"
           id="path1104" />
      </g>
      <path
         id="lpe_path-effect1108"
         style="font-weight:600;font-size:512.84px;font-family:'Yu Mincho';-inkscape-font-specification:'Yu Mincho Semi-Bold';display:inline;fill:#ffffff;stroke:#ff1493;stroke-width:9.92367"
         class="powerclip"
         d="M 41.02904,314.94526 H 676.76358 V 964.40109 H 41.02904 Z m 360.41384,413.44953 h 110.6813 v 87.39315 q 0,8.01313 -8.76436,8.01313 -21.78568,0 -63.10336,-3.00493 -2.00328,0 -2.00328,2.75452 0,3.00492 2.00328,3.50574 29.5484,8.26353 39.81522,16.02625 10.26681,7.5123 14.02297,26.29307 1.50246,6.76107 7.01148,6.76107 29.79881,0 44.82342,-13.27174 7.51231,-6.26025 10.26682,-12.77092 3.00492,-7.5123 3.00492,-24.7906 L 558.19965,590.6692 v -25.29143 q 13.02133,-9.76599 13.02133,-15.27502 0,-5.25861 -11.26846,-14.27338 -21.28486,-17.02789 -27.29471,-17.02789 -5.50902,0 -24.54019,21.53527 h -93.403 q -17.2783,-10.26681 -53.33736,-27.79552 3.50574,39.31439 3.50574,104.17063 0,114.43744 -18.53035,161.26415 -20.03282,53.58777 -69.61403,94.90545 -0.50082,0.50082 -0.50082,1.00164 0,3.75615 4.00656,3.75615 0.25041,0 0.75123,-0.25041 39.56481,-21.28486 62.35214,-41.31768 28.54675,-25.29142 43.07054,-59.0968 10.01641,-22.78732 15.02461,-48.57957 z M 512.12418,626.97867 V 552.10603 H 410.70806 v 18.53036 q 0,38.81357 -0.75123,56.34228 z m -102.16735,11.76928 q -1.75287,48.07875 -6.51066,77.87756 h 108.67801 v -77.87756 z m 29.79881,-167.27399 h 143.48503 q 6.76107,0 6.76107,-5.00821 0,-4.50738 -15.27502,-17.02789 -30.04922,-23.03773 -35.05742,-23.03773 -6.26026,0 -34.3062,33.30455 h -65.60746 v -31.30127 q 14.7742,-6.00985 14.7742,-11.76928 0,-5.25861 -6.76107,-7.01148 -8.26354,-2.2537 -56.34229,-7.2619 2.75451,15.77584 2.75451,57.34393 h -88.89561 v -31.30127 q 14.52379,-6.51067 14.52379,-12.77092 0,-5.0082 -8.26354,-7.01148 -9.01476,-2.2537 -53.83818,-5.75944 2.5041,19.28158 2.5041,56.84311 h -91.65012 q -18.02954,0 -38.56317,-4.00656 l 5.75943,18.78076 q 19.78241,-3.00492 32.80374,-3.00492 h 91.65012 q -0.25041,10.26682 -0.75123,20.53363 -0.75123,10.51723 -0.75123,11.26846 0,16.52707 20.03281,16.52707 26.54348,0 26.54348,-19.53199 v -28.79717 h 88.89561 l -0.50082,33.30455 q 0,15.52543 20.53363,15.52543 26.04266,0 26.04266,-18.53035 0,-14.7742 -0.50082,-30.29963 z M 269.47673,768.96124 v 9.766 q 0,14.7742 19.03117,14.7742 28.54676,0 28.54676,-18.02954 -3.00492,-75.87428 -3.00492,-171.53096 v -34.05579 q 13.27173,-10.0164 13.27173,-15.27502 0,-5.25861 -10.26681,-14.02297 -19.532,-15.77584 -25.04102,-15.77584 -5.25861,0 -26.54348,23.03774 h -64.35541 q -24.03938,-12.77092 -50.58286,-23.03774 2.50411,47.32753 2.50411,113.43581 l -2.00329,156.50636 q 0,15.27502 19.03118,15.27502 27.54512,0 27.54512,-17.52871 v -23.53856 z m 0,-11.76928 v -99.41284 h -71.86772 v 99.41284 z m 0,-111.18211 v -86.39151 h -71.86772 v 86.39151 z" />
    </clipPath>
  </defs>
  <g
     inkscape:label="Layer 1"
     inkscape:groupmode="layer"
     id="layer1">
    <g
       aria-label="萌"
       id="g472"
       style="font-weight:600;font-size:512.84px;font-family:'Yu Mincho';-inkscape-font-specification:'Yu Mincho Semi-Bold';display:inline;fill:#ffffff;stroke:#ff1493;stroke-width:9.92367;filter:url(#filter502)"
       transform="translate(1.1036912,0.32682944)"
       clip-path="url(#clipPath1102)"
       inkscape:path-effect="#path-effect1108">
      <path
         d="m 401.44288,728.39479 q -5.0082,25.79225 -15.02461,48.57957 -14.52379,33.80538 -43.07054,59.0968 -22.78733,20.03282 -62.35214,41.31768 -0.50082,0.25041 -0.75123,0.25041 -4.00656,0 -4.00656,-3.75615 0,-0.50082 0.50082,-1.00164 49.58121,-41.31768 69.61403,-94.90545 18.53035,-46.82671 18.53035,-161.26415 0,-64.85624 -3.50574,-104.17063 36.05906,17.52871 53.33736,27.79552 h 93.403 q 19.03117,-21.53527 24.54019,-21.53527 6.00985,0 27.29471,17.02789 11.26846,9.01477 11.26846,14.27338 0,5.50903 -13.02133,15.27502 v 25.29143 l 1.00164,234.63433 q 0,17.2783 -3.00492,24.7906 -2.75451,6.51067 -10.26682,12.77092 -15.02461,13.27174 -44.82342,13.27174 -5.50902,0 -7.01148,-6.76107 -3.75616,-18.78077 -14.02297,-26.29307 -10.26682,-7.76272 -39.81522,-16.02625 -2.00328,-0.50082 -2.00328,-3.50574 0,-2.75452 2.00328,-2.75452 41.31768,3.00493 63.10336,3.00493 8.76436,0 8.76436,-8.01313 V 728.39479 Z M 512.12418,626.97867 V 552.10603 H 410.70806 v 18.53036 q 0,38.81357 -0.75123,56.34228 z m -102.16735,11.76928 q -1.75287,48.07875 -6.51066,77.87756 h 108.67801 v -77.87756 z m 29.79881,-167.27399 q 0.50082,15.52543 0.50082,30.29963 0,18.53035 -26.04266,18.53035 -20.53363,0 -20.53363,-15.52543 l 0.50082,-33.30455 h -88.89561 v 28.79717 q 0,19.53199 -26.54348,19.53199 -20.03281,0 -20.03281,-16.52707 0,-0.75123 0.75123,-11.26846 0.50082,-10.26681 0.75123,-20.53363 h -91.65012 q -13.02133,0 -32.80374,3.00492 l -5.75943,-18.78076 q 20.53363,4.00656 38.56317,4.00656 h 91.65012 q 0,-37.56153 -2.5041,-56.84311 44.82342,3.50574 53.83818,5.75944 8.26354,2.00328 8.26354,7.01148 0,6.26025 -14.52379,12.77092 v 31.30127 h 88.89561 q 0,-41.56809 -2.75451,-57.34393 48.07875,5.0082 56.34229,7.2619 6.76107,1.75287 6.76107,7.01148 0,5.75943 -14.7742,11.76928 v 31.30127 h 65.60746 q 28.04594,-33.30455 34.3062,-33.30455 5.0082,0 35.05742,23.03773 15.27502,12.52051 15.27502,17.02789 0,5.00821 -6.76107,5.00821 z M 269.47673,768.96124 h -71.86772 v 23.53856 q 0,17.52871 -27.54512,17.52871 -19.03118,0 -19.03118,-15.27502 L 153.036,638.24713 q 0,-66.10828 -2.50411,-113.43581 26.54348,10.26682 50.58286,23.03774 h 64.35541 q 21.28487,-23.03774 26.54348,-23.03774 5.50902,0 25.04102,15.77584 10.26681,8.76436 10.26681,14.02297 0,5.25862 -13.27173,15.27502 v 34.05579 q 0,95.65668 3.00492,171.53096 0,18.02954 -28.54676,18.02954 -19.03117,0 -19.03117,-14.7742 z m 0,-11.76928 v -99.41284 h -71.86772 v 99.41284 z m 0,-111.18211 v -86.39151 h -71.86772 v 86.39151 z"
         style="display:inline;fill:#ff2a2a"
         id="path470"
         inkscape:original-d="m 401.44288,728.39479 q -5.0082,25.79225 -15.02461,48.57957 -14.52379,33.80538 -43.07054,59.0968 -22.78733,20.03282 -62.35214,41.31768 -0.50082,0.25041 -0.75123,0.25041 -4.00656,0 -4.00656,-3.75615 0,-0.50082 0.50082,-1.00164 49.58121,-41.31768 69.61403,-94.90545 18.53035,-46.82671 18.53035,-161.26415 0,-64.85624 -3.50574,-104.17063 36.05906,17.52871 53.33736,27.79552 h 93.403 q 19.03117,-21.53527 24.54019,-21.53527 6.00985,0 27.29471,17.02789 11.26846,9.01477 11.26846,14.27338 0,5.50903 -13.02133,15.27502 v 25.29143 l 1.00164,234.63433 q 0,17.2783 -3.00492,24.7906 -2.75451,6.51067 -10.26682,12.77092 -15.02461,13.27174 -44.82342,13.27174 -5.50902,0 -7.01148,-6.76107 -3.75616,-18.78077 -14.02297,-26.29307 -10.26682,-7.76272 -39.81522,-16.02625 -2.00328,-0.50082 -2.00328,-3.50574 0,-2.75452 2.00328,-2.75452 41.31768,3.00493 63.10336,3.00493 8.76436,0 8.76436,-8.01313 V 728.39479 Z M 512.12418,626.97867 V 552.10603 H 410.70806 v 18.53036 q 0,38.81357 -0.75123,56.34228 z m -102.16735,11.76928 q -1.75287,48.07875 -6.51066,77.87756 h 108.67801 v -77.87756 z m 29.79881,-167.27399 q 0.50082,15.52543 0.50082,30.29963 0,18.53035 -26.04266,18.53035 -20.53363,0 -20.53363,-15.52543 l 0.50082,-33.30455 h -88.89561 v 28.79717 q 0,19.53199 -26.54348,19.53199 -20.03281,0 -20.03281,-16.52707 0,-0.75123 0.75123,-11.26846 0.50082,-10.26681 0.75123,-20.53363 h -91.65012 q -13.02133,0 -32.80374,3.00492 l -5.75943,-18.78076 q 20.53363,4.00656 38.56317,4.00656 h 91.65012 q 0,-37.56153 -2.5041,-56.84311 44.82342,3.50574 53.83818,5.75944 8.26354,2.00328 8.26354,7.01148 0,6.26025 -14.52379,12.77092 v 31.30127 h 88.89561 q 0,-41.56809 -2.75451,-57.34393 48.07875,5.0082 56.34229,7.2619 6.76107,1.75287 6.76107,7.01148 0,5.75943 -14.7742,11.76928 v 31.30127 h 65.60746 q 28.04594,-33.30455 34.3062,-33.30455 5.0082,0 35.05742,23.03773 15.27502,12.52051 15.27502,17.02789 0,5.00821 -6.76107,5.00821 z M 269.47673,768.96124 h -71.86772 v 23.53856 q 0,17.52871 -27.54512,17.52871 -19.03118,0 -19.03118,-15.27502 L 153.036,638.24713 q 0,-66.10828 -2.50411,-113.43581 26.54348,10.26682 50.58286,23.03774 h 64.35541 q 21.28487,-23.03774 26.54348,-23.03774 5.50902,0 25.04102,15.77584 10.26681,8.76436 10.26681,14.02297 0,5.25862 -13.27173,15.27502 v 34.05579 q 0,95.65668 3.00492,171.53096 0,18.02954 -28.54676,18.02954 -19.03117,0 -19.03117,-14.7742 z m 0,-11.76928 v -99.41284 h -71.86772 v 99.41284 z m 0,-111.18211 v -86.39151 h -71.86772 v 86.39151 z" />
    </g>
  </g>
</svg>
