<?xml version="1.0" encoding="UTF-8" standalone="no"?>
<!-- Created with Inkscape (http://www.inkscape.org/) -->

<svg
   xmlns:dc="http://purl.org/dc/elements/1.1/"
   xmlns:cc="http://creativecommons.org/ns#"
   xmlns:rdf="http://www.w3.org/1999/02/22-rdf-syntax-ns#"
   xmlns:svg="http://www.w3.org/2000/svg"
   xmlns="http://www.w3.org/2000/svg"
   xmlns:sodipodi="http://sodipodi.sourceforge.net/DTD/sodipodi-0.dtd"
   xmlns:inkscape="http://www.inkscape.org/namespaces/inkscape"
   width="210mm"
   height="297mm"
   id="svg2"
   version="1.1"
   inkscape:version="0.48.5 r"
   sodipodi:docname="nortmal.svg">
  <defs
     id="defs4" />
  <sodipodi:namedview
     id="base"
     pagecolor="#ffffff"
     bordercolor="#666666"
     borderopacity="1.0"
     inkscape:pageopacity="0.0"
     inkscape:pageshadow="2"
     inkscape:zoom="0.5"
     inkscape:cx="361.66688"
     inkscape:cy="742.31919"
     inkscape:document-units="px"
     inkscape:current-layer="layer2"
     showgrid="false"
     inkscape:window-width="1366"
     inkscape:window-height="697"
     inkscape:window-x="-4"
     inkscape:window-y="48"
     inkscape:window-maximized="1">
    <inkscape:grid
       type="xygrid"
       id="grid5333" />
  </sodipodi:namedview>
  <metadata
     id="metadata7">
    <rdf:RDF>
      <cc:Work
         rdf:about="">
        <dc:format>image/svg+xml</dc:format>
        <dc:type
           rdf:resource="http://purl.org/dc/dcmitype/StillImage" />
        <dc:title />
      </cc:Work>
    </rdf:RDF>
  </metadata>
  <g
     inkscape:groupmode="layer"
     id="layer2"
     inkscape:label="work"
     style="opacity:1;display:inline">
    <g
       id="g6183"
       transform="translate(-648,-48)">
      <path
         inkscape:connector-curvature="0"
         id="rect5357"
         d="m 1122.8438,62.375 c -59.4554,0 -110.2313,35.539939 -130.5313,85.6875 l -262.3125,0 c -26.90857,0 -48.5625,21.68518 -48.5625,48.59375 l 0,271.40625 c 0,26.90857 21.65393,48.59375 48.5625,48.59375 l 537.1562,0 c 26.9086,0 48.5626,-21.68518 48.5626,-48.59375 l 0,-271.40625 c 0,-26.90857 -21.654,-48.59375 -48.5626,-48.59375 l -13.75,0 c -20.3,-50.147561 -71.1071,-85.6875 -130.5624,-85.6875 z"
         style="color:#000000;fill:#00ff00;fill-opacity:1;stroke:#000000;stroke-width:10;stroke-linecap:round;stroke-linejoin:round;stroke-miterlimit:4;stroke-opacity:1;stroke-dasharray:none;marker:none;visibility:visible;display:inline;overflow:visible;enable-background:accumulate" />
      <path
         style="color:#000000;fill:#5511dd;fill-opacity:1;stroke:#00ffff;stroke-width:6;stroke-linecap:round;stroke-linejoin:round;stroke-miterlimit:4;stroke-opacity:1;stroke-dasharray:none;marker:none;visibility:visible;display:inline;overflow:visible;enable-background:accumulate"
         d="m 1118.0362,85.232138 c -56.7297,0 -105.1777,32.522372 -124.54712,78.412082 l -250.28682,0 c -25.67495,0 -46.33618,19.84396 -46.33618,44.46781 l 0,248.36208 c 0,24.62385 20.66123,44.46782 46.33618,44.46782 l 512.53044,0 c 25.6749,0 46.3362,-19.84397 46.3362,-44.46782 l 0,-248.36208 c 0,-24.62385 -20.6613,-44.46781 -46.3362,-44.46781 l -13.1196,0 c -19.3694,-45.88971 -67.8472,-78.412082 -124.5769,-78.412082 z"
         id="path6132"
         inkscape:connector-curvature="0" />
      <g
         transform="translate(4,-4)"
         id="g6153">
        <path
           sodipodi:type="arc"
           style="color:#000000;fill:#5511dd;fill-opacity:1;fill-rule:nonzero;stroke:#000000;stroke-width:6;stroke-linecap:round;stroke-linejoin:round;stroke-miterlimit:4;stroke-opacity:1;stroke-dasharray:none;stroke-dashoffset:0;marker:none;visibility:visible;display:inline;overflow:visible;enable-background:accumulate"
           id="path6134"
           sodipodi:cx="483.57144"
           sodipodi:cy="137.36218"
           sodipodi:rx="35"
           sodipodi:ry="35"
           d="m 518.57144,137.36218 c 0,19.32997 -15.67003,35 -35,35 -19.32996,0 -35,-15.67003 -35,-35 0,-19.32996 15.67004,-35 35,-35 19.32997,0 35,15.67004 35,35 z"
           transform="translate(633.3961,3.6568542)" />
        <path
           transform="matrix(0.67675119,0,0,0.67675119,789.70999,48.059016)"
           d="m 518.57144,137.36218 c 0,19.32997 -15.67003,35 -35,35 -19.32996,0 -35,-15.67003 -35,-35 0,-19.32996 15.67004,-35 35,-35 19.32997,0 35,15.67004 35,35 z"
           sodipodi:ry="35"
           sodipodi:rx="35"
           sodipodi:cy="137.36218"
           sodipodi:cx="483.57144"
           id="path6136"
           style="color:#000000;fill:#000000;fill-opacity:1;fill-rule:nonzero;stroke:#000000;stroke-width:8.86588764;stroke-linecap:round;stroke-linejoin:round;stroke-miterlimit:4;stroke-opacity:1;stroke-dasharray:none;stroke-dashoffset:0;marker:none;visibility:visible;display:inline;overflow:visible;enable-background:accumulate"
           sodipodi:type="arc" />
        <path
           style="color:#000000;fill:#ffff00;fill-opacity:1;fill-rule:nonzero;stroke:#00ff00;stroke-width:2.20000005;stroke-linecap:butt;stroke-linejoin:miter;stroke-miterlimit:4;stroke-opacity:1;stroke-dasharray:none;stroke-dashoffset:0;marker:none;visibility:visible;display:inline;overflow:visible;enable-background:accumulate"
           d="m 1103.2452,131.76742 9.2516,9.25162 -9.2516,9.25161 4.4706,4.47068 9.2517,-9.25161 9.2515,9.25161 4.4708,-4.47068 -9.2516,-9.2516 9.2516,-9.25163 -4.4708,-4.47067 -9.2515,9.25162 -9.2517,-9.25162 -4.4706,4.47067 z"
           id="rect6148"
           inkscape:connector-curvature="0" />
      </g>
      <rect
         y="185.44926"
         x="718.42047"
         height="237.58788"
         width="561.44281"
         id="rect6158"
         style="color:#000000;fill:#ddeedd;fill-opacity:1;fill-rule:nonzero;stroke:#000600;stroke-width:8;stroke-linecap:square;stroke-linejoin:miter;stroke-miterlimit:4;stroke-opacity:1;stroke-dasharray:none;stroke-dashoffset:0;marker:none;visibility:visible;display:inline;overflow:visible;enable-background:accumulate" />
      <text
         transform="scale(1.2885496,0.77606639)"
         sodipodi:linespacing="125%"
         id="text6160"
         y="618.49298"
         x="989.11157"
         style="font-size:28.14670181px;font-style:normal;font-weight:normal;line-height:125%;letter-spacing:0px;word-spacing:0px;fill:#ffffff;fill-opacity:1;stroke:#000000;stroke-width:0.99999994;stroke-opacity:1;font-family:Sans"
         xml:space="preserve"><tspan
           dy="0 0 0 0 0"
           dx="-4.573297 0 0 0 0 0 0"
           style="font-size:77.61142731px;font-style:normal;font-variant:normal;font-weight:900;font-stretch:normal;text-align:end;line-height:125%;letter-spacing:0px;writing-mode:lr-tb;text-anchor:end;fill:#ffffff;fill-opacity:1;stroke:none;font-family:Arial Black;-inkscape-font-specification:'Arial Black, Heavy'"
           y="618.49298"
           x="989.11157"
           id="tspan6162"
           sodipodi:role="line">NORTMAL</tspan></text>
    </g>
  </g>
</svg>
